<?xml version="1.0" standalone="no"?>
<!DOCTYPE svg PUBLIC "-//W3C//DTD SVG 1.1//EN" "http://www.w3.org/Graphics/SVG/1.1/DTD/svg11.dtd" >
<!--
2013-9-30: Created.
-->
<svg>
<metadata>
Created by iconfont
</metadata>
<defs>

<font id="tb" horiz-adv-x="1024" >
  <font-face
    font-family="tb"
    font-weight="500"
    font-stretch="normal"
    units-per-em="1024"
    ascent="896"
    descent="-128"
  />
    <missing-glyph />
    
    <glyph glyph-name="x" unicode="x" horiz-adv-x="1001"
d="M281 543q-27 -1 -53 -1h-83q-18 0 -36.5 -6t-32.5 -18.5t-23 -32t-9 -45.5v-76h912v41q0 16 -0.5 30t-0.5 18q0 13 -5 29t-17 29.5t-31.5 22.5t-49.5 9h-133v-97h-438v97zM955 310v-52q0 -23 0.5 -52t0.5 -58t-10.5 -47.5t-26 -30t-33 -16t-31.5 -4.5q-14 -1 -29.5 -0.5
t-29.5 0.5h-32l-45 128h-439l-44 -128h-29h-34q-20 0 -45 1q-25 0 -41 9.5t-25.5 23t-13.5 29.5t-4 30v167h911zM163 247q-12 0 -21 -8.5t-9 -21.5t9 -21.5t21 -8.5q13 0 22 8.5t9 21.5t-9 21.5t-22 8.5zM316 123q-8 -26 -14 -48q-5 -19 -10.5 -37t-7.5 -25t-3 -15t1 -14.5
t9.5 -10.5t21.5 -4h37h67h81h80h64h36q23 0 34 12t2 38q-5 13 -9.5 30.5t-9.5 34.5q-5 19 -11 39h-368zM336 498v228q0 11 2.5 23t10 21.5t20.5 15.5t34 6h188q31 0 51.5 -14.5t20.5 -52.5v-227h-327z" />
    

    
    <glyph glyph-name="caidan" unicode="&#58962;" d="M16 598.656l992 0c8.832 0 16 7.168 16 16s-7.168 16-16 16l-992 0c-8.832 0-16-7.168-16-16S7.168 598.656 16 598.656zM1008 316l-992 0C7.168 316 0 308.832 0 300s7.168-16 16-16l992 0c8.832 0 16 7.168 16 16S1016.832 316 1008 316zM1008 1.312l-992 0c-8.832 0-16-7.168-16-16s7.168-16 16-16l992 0c8.832 0 16 7.168 16 16S1016.832 1.312 1008 1.312z"  horiz-adv-x="1024" />

    
    <glyph glyph-name="zhifubao" unicode="&#58939;" d="M604.223602 99.652174c-197.167702-254.409938-438.857143-178.086957-477.018634-159.006211-95.403727 25.440994-127.204969 197.167702-6.360248 254.409938 197.167702 63.602484 375.254658-6.360248 502.459627-69.962733C610.583851 106.012422 604.223602 99.652174 604.223602 99.652174zM814.111801 169.614907c89.043478 159.006211 120.84472 311.652174 120.84472 311.652174l-19.080745 0-133.565217 0L636.024845 481.267081 636.024845 595.751553l349.813665 0L985.838509 640.273292 636.024845 640.273292 636.024845 812 477.018634 812l0-171.726708-318.012422 0 0-50.881988 318.012422 0 0-114.484472L209.888199 474.906832l0-50.881988 546.981366 0c0-6.360248 0-6.360248-6.360248-19.080745 0-57.242236-38.161491-133.565217-69.962733-197.167702-407.055901 159.006211-521.540373 63.602484-553.341615 50.881988-267.130435-190.807453-19.080745-432.496894 25.440994-426.136646 286.21118-63.602484 470.658385 57.242236 597.863354 209.888199 6.360248-6.360248 19.080745-6.360248 25.440994-6.360248 89.043478-50.881988 508.819876-248.049689 508.819876-248.049689l0 241.689441C1208.447205 36.049689 979.478261 112.372671 814.111801 169.614907z"  horiz-adv-x="1285" />

    
    <glyph glyph-name="yu" unicode="&#58947;" d="M903.406933 289.384533c48.827733 72.772267 84.599467 149.845333 91.6992 236.3904-32.597333-36.864-66.798933-72.260267-104.4992-104.3968-34.4576-32.802133-81.442133-39.202133-133.000533-36.061867-64.733867-1.1776-126.020267 20.2752-182.493867 73.489067 37.393067 13.585067 34.235733 35.7888 25.429333 69.8368-9.437867 36.573867 4.864 90.350933 22.869333 146.8416-65.1776-31.146667-118.152533-93.576533-168.584533-162.5088-67.140267-4.232533-132.898133-16.247467-197.188267-36.437333-53.691733-23.0912-102.144-57.429333-148.872533-91.5968-16.810667-12.288-33.621333-21.6576-50.056533-34.525867-20.548267-16.093867-39.611733-30.1568-40.567467-57.9072C17.698133 279.9808 17.493333 274.2976 17.066667 261.8048c8.977067-1.518933 13.073067-7.2192 13.806933-15.752533L22.9888 246.052267c8.874667-38.536533 21.504-69.239467 42.3936-82.7392 63.214933-56.9856 139.537067-93.832533 231.697067-106.376533 80.520533-8.482133 155.3408 1.774933 221.832533 39.406933 20.992-67.805867 48.008533-117.8112 83.797333-141.824 3.328 64.3584-6.468267 125.0816 80.8448 212.736 31.6928 22.6304 60.2112 46.4896 51.268267 84.701867 49.425067 0.648533 151.825067-86.357333 272.110933-202.888533C983.7568 130.101333 951.6032 210.382933 903.406933 289.384533zM107.485867 285.3568c-10.939733 0-19.797333 10.376533-19.797333 23.176533s8.874667 23.176533 19.797333 23.176533 19.797333-10.376533 19.797333-23.176533S118.4256 285.3568 107.485867 285.3568z"  horiz-adv-x="1024" />

    
    <glyph glyph-name="lianheyinxing" unicode="&#59079;" d="M283.2 138.4c32 4.8 64 11.2 96 16l0 92.8-96 0L283.2 138.4zM283.2 528.8l96 0 0-96-96 0 0 96ZM283.2 389.6l96 0 0-96-96 0 0 96ZM832 812 192 812C86.4 812 0 725.6 0 620l0-640c0-105.6 86.4-192 192-192l640 0c105.6 0 192 86.4 192 192L1024 620C1024 725.6 937.6 812 832 812zM531.2 621.6c25.6-30.4 51.2-62.4 73.6-97.6l-43.2-28.8c-17.6 30.4-41.6 64-68.8 100.8L531.2 621.6zM425.6-21.6l-48 0 0 129.6c-56-11.2-116.8-24-180.8-36.8l-12.8 52.8c16 3.2 33.6 4.8 49.6 8L233.6 528.8 192 528.8l0 46.4 283.2 0 0-46.4-49.6 0 0-364.8c19.2 3.2 40 8 59.2 11.2 1.6-17.6 3.2-33.6 4.8-46.4-20.8-4.8-41.6-8-64-12.8L425.6-21.6zM796.8-15.2C720 44 664 117.6 633.6 207.2c-24-94.4-76.8-169.6-160-227.2-12.8 17.6-25.6 32-36.8 43.2 91.2 57.6 144 139.2 160 246.4l-147.2 0 0 48 152 0c1.6 32 3.2 72 1.6 118.4l-136 0 0 48 177.6 0c19.2 32 44.8 78.4 76.8 139.2l51.2-24c-27.2-41.6-52.8-80-75.2-113.6l110.4 0 0-48-153.6 0c0-48 0-86.4-1.6-118.4l177.6 0 0-48L657.6 271.2c33.6-104 94.4-182.4 180.8-233.6C824 18.4 809.6 2.4 796.8-15.2z"  horiz-adv-x="1024" />

    
    <glyph glyph-name="fanhuidingbu" unicode="&#59161;" d="M940.8 716 83.2 716c-12.8 0-19.2-9.4-19.2-19.2 0-7.8 6.4-16.8 19.2-16.8l857.6 0c12.8 0 19.2 10.4 19.2 18.8C960 708.4 953.6 716 940.8 716zM516.6 568.8c-5.8 0-14.2-4.4-22.4-12-58.4-55.2-278.6-276.4-278.6-276.4-6.4-6.4-4.4-19.2 2-25.6s19.2-6.4 25.6 0l256 250 0-608c0-12.8 6.4-19.2 19.2-19.2 12.8 0 19.2 6.4 19.2 19.2L537.6 505.2l256-250c7.4-6.2 20.6-5 27 1.4s7.8 19 0.6 26.2c-4 4-231 227.6-286 276.8C528.6 565.4 523.4 568.8 516.6 568.8z"  horiz-adv-x="1024" />

    
    <glyph glyph-name="huiyuan1" unicode="&#58909;" d="M940.032-112.64l-855.04 0c-54.272 0-84.992 32.768-84.992 91.136 0 111.616 99.328 273.408 278.528 273.408 11.264 0 19.456-9.216 19.456-19.456s-9.216-19.456-19.456-19.456c-153.6 0-238.592-138.24-238.592-234.496 0-46.08 24.576-51.2 45.056-51.2l855.04 0c21.504 0 45.056 6.144 45.056 51.2 0 95.232-84.992 234.496-238.592 234.496-11.264 0-19.456 9.216-19.456 19.456s9.216 19.456 19.456 19.456C925.696 251.904 1025.024 90.112 1025.024-21.504 1025.024-78.848 994.304-112.64 940.032-112.64zM513.024 266.24c-153.6 0-279.552 137.216-279.552 307.2S359.424 880.64 513.024 880.64s279.552-137.216 279.552-307.2S666.624 266.24 513.024 266.24zM513.024 840.704c-132.096 0-239.616-119.808-239.616-267.264S380.928 306.176 513.024 306.176s239.616 119.808 239.616 267.264S645.12 840.704 513.024 840.704z"  horiz-adv-x="1026" />

    
    <glyph glyph-name="yinlian" unicode="&#59059;" d="M59.598067 775.281182c-0.610026-2.941587-1.178806-5.646544-1.178806-5.646544L7.487478 544.715053 0 488.084623c0.067298-14.356246 2.985005-26.941027 8.972382-37.430877 19.325465-33.681711 76.863336-38.7204 109.427027-38.7204 43.494237 0 83.495475 9.235063 109.707075 25.33021 46.368525 27.39909 58.60596 70.869446 69.375858 109.233816l5.325249 20.326256c1.764952 7.131448 40.824014 164.642022 53.120064 208.06896-42.50213-0.449379-62.405058-0.093349-72.445529 0.644761-2.909023-13.229542-9.13303-41.850856-16.036532-73.633018-19.071468-87.711387-26.042269-119.817016-30.316796-131.526919l1.526152-0.35603c-9.284994-40.628632-16.644388-72.701697-42.137416-93.290633-14.840359-12.068104-32.266276-18.164027-51.761072-18.164027-33.141154 0-53.196046 17.358618-56.504517 48.921519l-0.551412 9.617143c6.004745 38.948345 8.03889 52.210451 9.295848 57.307754l-0.288731 0.067298c1.745414 6.938237 39.33911 157.85792 51.711141 200.429518C95.485426 774.536559 71.410004 774.536559 59.598067 775.281182L59.598067 775.281182zM858.747952 591.118313c1.23742 2.969809 2.54431 5.911395 3.866396 8.811735 5.453333 12.135402 10.617934 23.649923 11.08251 39.753754-27.509806 11.872722-55.03698 17.877466-81.865119 17.877466-102.695027 0-179.415083-89.6435-179.415083-169.832674 0-28.49323 10.118624-52.685881 29.274758-69.918587 32.266276-29.018591 88.380028-37.430877 162.223625-23.947338 11.236644 12.330784 15.747801 32.622306 20.495587 54.018822 0.160648 0.644761 0.288731 1.289522 0.432012 1.934283-0.805409-0.162818-1.628185-0.288731-2.45096-0.45155-17.697281-3.356231-39.729874-7.520042-59.810817-7.520042-27.331791 0-45.079003 7.648126-54.212033 23.430661-12.669447 31.621515-9.845089 62.437621 7.385445 87.8373C743.639645 594.187983 804.338366 610.904011 858.747952 591.118313L858.747952 591.118313zM1119.070782 396.024898c6.547473 39.365161 13.331575 79.281733 29.884785 152.955999 7.548264 34.141945 15.485121 68.281718 23.558745 102.228281-37.12695-7.072834-51.424581-9.235063-88.236748-14.74701l-3.63845-0.551412-4.901921-37.62626-12.135402 23.100682c-7.292096 13.848252-17.901346 23.337312-32.479025 28.951292-3.256369 1.254788-7.726278 1.899549-12.923444 1.899549-20.57374 0-56.341698-10.676549-89.398187-40.882629-23.558745-21.785109-39.187146-52.212622-49.142952-95.648244-14.568995-62.439792-2.477011-100.293998 37.007549-115.779118 15.281055-6.360774 29.774068-9.293677 45.775866-9.293677l4.75647 0.093349c16.509791 0.940005 33.605729 9.717005 52.067171 26.754329l20.614987 19.00417-10.761214-41.688037C1064.847894 396.246331 1079.010929 396.246331 1119.070782 396.024898L1119.070782 396.024898zM1033.912388 456.302461c-9.226379-13.101458-30.197396-21.396516-44.206296-21.396516-14.519064 0-30.264694 9.456496-30.909456 36.015442-0.195382 14.644977 2.789623 29.552635 6.402022 46.140579 10.455116 44.757708 23.76064 88.321414 61.167637 88.321414 10.633131 0 19.614197-4.224596 25.992338-12.2027 11.32131-14.163035 13.474855-38.585803 6.224007-70.632817l-0.694692-2.839554C1052.441128 497.575854 1044.758268 470.369975 1033.912388 456.302461L1033.912388 456.302461zM1423.947254 169.969925l14.195598 46.919937-9.421761 0c-10.667865 0-17.688597 2.153545-22.030422 6.810153-2.120982 2.264262-4.587139 6.258741-4.207229 12.304733l-0.805409 29.678548-87.370554 0 1.704166-63.149681c-0.382081-8.648916 1.94948-15.357037 6.953433-20.643209 9.030997-9.452154 26.170353-13.592085 50.04171-11.955216L1423.947254 169.969925 1423.947254 169.969925zM1304.538369 265.472718c-83.063463-1.873498-140.303919-5.001783-153.192628-8.368869-22.981282-5.943959-48.098743-23.88004-48.346227-24.049371l-21.175083-15.187706 14.390981 48.268074-79.985109 0-18.613406-62.446305L892.939827-143.446918l-19.970226 0-14.332366-46.329449 196.324322 0-6.640822-21.724324 77.855444 0 6.462807 21.724324 27.179827 0 15.671819 51.433265-27.179827 0 106.798052 353.459328 33.768548 0L1304.538369 265.472718 1304.538369 265.472718zM1071.412734-139.209296 974.305637-139.209296l28.204498 93.0692 96.979014 0L1071.412734-139.209296 1071.412734-139.209296zM1115.441015 7.244819l-5.733381-0.694692c-0.227946-0.036906-24.329419-3.052303-39.610474-6.56484-14.542944-4.313604-43.476869-19.121399-43.774284-19.258167l-18.589526-9.521623 34.734604 115.490387 97.241694 0L1115.441015 7.244819 1115.441015 7.244819zM1154.365481 135.252689l-6.165392-0.384252c-0.227946-0.041247-23.515327-1.567399-38.737767-5.492409-15.009691-4.13776-43.426938-16.824574-43.724353-16.961341l-17.825364-7.962908 33.733813 110.666619 96.733701 0L1154.365481 135.252689 1154.365481 135.252689zM1279.905023 133.960996l-14.212966-47.124003 113.421507 0-22.123772-70.237711L1242.65216 16.599282l-11.82062-39.831907 105.306635 0-85.564355-120.984967c-6.156709-9.030997-11.957387-12.856145-19.342832-15.986601-6.308672-3.058816-14.230333-6.504055-23.836622-6.504055l-21.21633 0-13.661554-45.280898 60.820291 0c29.806632 0 51.287813 11.160662 69.655906 36.17609l64.602021 88.699153 14.534261-93.668372c2.010265-11.779373 11.694707-17.061203 13.618136-18.003379 2.086247-1.009474 4.222425-2.255578 6.436756-3.545101 5.173285-2.985005 10.075206-5.835413 15.98443-6.291305 10.837196-0.586146 18.767541-0.933492 24.312052-0.933492l29.070692 0 15.951867 52.720616-1.873498 0c-9.27631 0-25.68624 0.898758-31.104838 6.842717-3.492999 5.003954-4.222425 9.556358-5.071252 14.838189l-10.930546 69.692812-57.885217 0 35.34463 42.219911 112.014755 0 11.989951 39.834078-106.001327 0 22.208437 70.237711 105.449915 0 14.347562 47.124003L1279.905023 133.954483 1279.905023 133.960996zM282.236023 116.519883l-13.763587-45.461084 59.988832 0-21.218501-71.73347-60.666156 0-14.595046-48.626274 60.260196 0-38.609683-127.760386c-2.678906-8.820418-0.414644-12.094155 3.3063-17.478018l2.357611-3.577664c3.825148-5.663911 6.675557-8.447021 14.078369-10.253221 10.387817-2.301168 16.83977-3.621082 25.68624-3.621082l115.694453 0 15.797732 52.729299-40.509232-5.698646c-16.917923 0.102033-37.252863 1.840934-43.960983 11.015211-2.535626 3.477802-3.197754 7.68286-1.873498 11.82062l28.187131 93.798627 108.393673 0 14.490843 47.649364-108.536953 0 21.965295 71.73347 106.12724 0 14.061002 45.461084L282.236023 116.517712 282.236023 116.519883zM371.938137 165.315488l19.394934 16.509791 145.188473 0 14.618926 48.446089-111.708657 0 19.114887 36.141355-88.347465 0L345.487737 221.511735c-6.842717-12.617345-12.999425-20.258958-19.351516-24.049371-5.062569-3.54293-13.626819-5.103816-29.077205-5.103816l-7.80226 0-13.848252-45.810601 35.566063 0c22.108575 0 39.347793 8.757462 45.011705 11.640434 4.443858 2.401029 7.854362 3.301958 10.355254 3.961916C369.0899 162.881895 369.749857 163.05991 371.938137 165.315488L371.938137 165.315488zM807.909517 21.950582c8.92028 0.872707 19.310269 4.417807 31.597635 10.811145 12.211384 6.810153 17.758066 13.726681 21.878459 20.191659 3.314984 4.621873 14.017584 20.988384 23.751956 54.424782l47.666731 158.587346-137.887693-0.694692c0.449379-0.034735-44.349576-6.886135-63.635965-14.0089-18.732806-7.68286-46.919937-30.0628-47.199985-30.273378l-10.057839-8.021523 165.794777 0-16.331777-54.144735-6.673386 0.067298c-0.017367 0-10.769898 0.102033-24.61598 0.102033-46.309911 0-55.629639-1.21354-57.385907-1.560886-48.081375-8.242956-76.075295-33.336536-76.353172-33.581849l-13.568205-12.372032 163.37638 0-14.314999-44.175903-4.450371-3.677526-4.087829-0.245313c-0.636077 0-1.458853 0.067298-2.570361 0.201895-2.186109 0.247484-6.656018 0.766332-15.500317-0.37991l-144.697847-0.069469 43.444306 143.503845-3.825148-3.030594 17.918714 62.075079-74.353761 0-127.897153-424.387389c-3.697064-13.381506-7.274729-26.941027-8.03889-34.276541-0.075982-2.18828 7.572144-8.718386 10.837196-11.499325l2.713641-2.301168c3.40182-2.600753 10.405185-2.915536 17.825364-3.297616 2.401029-0.110717 4.834623-0.212749 7.224798-0.416815 11.195397-1.007304 27.492439-1.49793 49.915797-1.49793l64.762669 0 16.103831 54.91758-50.56707-4.836794-0.102033 0c-11.227961 0-18.715439 5.904883-21.980491 10.947913-4.808572 6.293476-2.655026 14.002387 1.246104 28.043851l0.677325 2.470499 42.775665 141.176626 151.234465 0C784.962969 20.873809 798.963186 21.251548 807.909517 21.950582L807.909517 21.950582zM858.6025-9.086957l-53.23078 0-6.877452-22.312641c-1.806199-5.833243-4.723906-10.353083-8.911597-13.761416-6.640822-4.274527-14.026267-4.799888-21.149032-4.799888l-31.004976 0 1.324257 36.948935-72.11555 0-3.460435-171.621506c-0.312611-12.517483 1.239591-15.467753 6.343407-18.632944 9.106979-7.190063 51.127166-7.190063 73.68512-7.190063l49.937506 0 14.493013 48.828169-54.492081-2.919878-1.654236 0.59483c-2.95027 1.009474-6.44544 2.56819-10.10777 6.291305-5.859293 3.230318-7.980275 8.928964-7.42018 20.604133l0.414644 54.216375 59.945413 2.329389c25.966287 0 35.770129 8.271178 44.419046 15.604521 7.554776 6.530106 10.218486 14.323682 13.696288 26.313633L858.6025-9.086957 858.6025-9.086957zM1589.811499 207.578817l30.010698 69.089298 85.514424 269.388562c7.53958 26.964907 12.007318 47.40188 13.168757 60.505509 1.984214 23.183177-2.780939 41.501339-14.525577 55.924883-11.160662 13.798321-41.323324 22.243172-64.050609 23.176664-17.273953 0.872707-33.903144-1.873498-49.557596-7.817457-15.934499-6.048163-33.885777-16.579261-53.315446-31.27634l-21.116468-15.993114 50.30439 178.709537L1501.294704 812l-124.13279-443.128879 64.975418-2.704957 35.108001 125.530858c11.712074 41.985452 20.436973 68.121071 26.678347 79.833145 11.032579 21.029632 26.18772 38.787698 44.987825 52.764034 14.347562 10.557149 29.263904 15.917132 44.343064 15.917132l2.678906-0.043418c13.53347-0.551412 24.201335-5.383864 31.699668-14.382297 7.32683-8.8964 10.455116-20.267641 9.345779-33.783744-0.610026-6.742855-3.764363-20.436973-9.973173-43.164258L1533.198437 262.107804l-19.581633-31.766966c-3.562468-4.901921-7.352881-9.178619-13.346772-11.015211-3.603715-1.806199-9.269797-2.78311-17.688597-2.78311l-5.996061 0-13.661554-44.968286 52.881263-0.840143C1548.631456 170.836119 1577.667414 185.294398 1589.811499 207.578817L1589.811499 207.578817zM1355.886968 578.474917c10.930546-3.034936 22.158506-6.165392 35.691976-7.910806l13.17744 52.668514c-25.525592 9.905875-51.144533 14.909829-76.244626 14.909829-65.474728 0-109.070998-33.557969-121.851161-64.730105-9.191645-22.42987-4.096512-44.792443 14.382297-63.023768 17.145869-13.713656 32.800321-17.232705 47.896848-20.649722 8.114872-1.840934 15.782536-3.553784 23.489276-6.810153l2.80699-1.966847c11.397292-12.135402 10.921862-21.292312 8.523003-26.812943-6.699437-15.561103-36.015442-18.98029-82.383967-10.685232 0.449379 0.160648 1.254788-0.221433-50.211041 8.777l-13.168757-59.344071c29.867417-7.131448 60.184214-10.871931 88.126032-10.871931 54.036189 0 94.391286 13.813518 113.658136 38.846313 14.067515 18.300794 17.113305 42.825596 9.098295 72.897079-6.810153 12.100668-33.657831 26.949711-48.439576 33.588362l-1.806199 0.458063c-7.192234 1.806199-24.040688 6.063359-30.748808 18.715439-2.357611 4.452542-4.426491 11.837987-0.822776 21.785109 2.340244 6.488858 9.48906 17.326055 31.020172 17.326055 7.945541 0 14.525577-1.517468 14.814309-1.578254C1340.189098 582.790691 1347.822028 580.697931 1355.886968 578.474917L1355.886968 578.474917zM655.895694 746.662039c-21.099101 29.459286-65.340132 29.713283-116.584527 30.036749l-26.152986-0.323466c-56.426364-0.610026-85.114976-0.551412-100.693445 0.390764-0.779358-3.679697-1.491417-6.912186-1.491417-6.912186 0 0.034735-23.940826-111.74122-24.346786-113.710238-0.052102-0.26268-47.269454-194.839418-59.005408-243.116176 21.411712 0.230117 37.804274 0.35603 50.345637 0.35603 12.144086 0 20.777806-0.125913 26.925831-0.388593 1.730217 8.199537 4.409124 21.140348 7.038099 33.818479 4.383073 21.131665 6.690753 32.266276 8.631549 38.108202l-0.601343 0.128084c11.931336 50.082957 12.576097 51.763243 12.797531 52.37327l1.033354 1.908232c0.805409 1.09414 5.003954 6.647335 10.159872 9.582409l1.908232 1.068089 7.648126 0c50.211041 0 107.130202 0 150.598388 31.877683 29.172725 21.878459 49.440367 54.212033 58.529978 93.518579 2.570361 10.778582 3.968428 22.327838 3.968428 32.496393C666.613491 724.392816 663.129176 737.103511 655.895694 746.662039L655.895694 746.662039zM581.728632 664.794749C575.597974 637.267576 557.924574 613.964998 534.435298 602.413572c-18.910821-9.41959-41.17136-10.192435-64.228624-10.192435l-24.203506 0 3.01974 15.426506c19.392763 84.31608 24.455332 106.357357 25.940236 112.488014l2.407542 18.487493 18.309478-1.969018c0 0 51.305181-4.511157 54.485568-4.680488l2.628975-0.542728C577.666854 721.976591 588.749363 696.450999 581.728632 664.794749L581.728632 664.794749zM581.728632 664.794749"  horiz-adv-x="1719" />

    
    <glyph glyph-name="yduiqianjin" unicode="&#58979;" d="M750.768 399.929l-431.027 438.278c-6.686 6.798-17.619 6.891-24.42 0.203-6.801-6.686-6.891-17.62-0.203-24.42l419.018-426.066-424.477-424.478c-6.743-6.743-6.743-17.678 0-24.421 3.372-3.372 7.792-5.058 12.211-5.058s8.84 1.687 12.211 5.058l436.584 436.584c6.705 6.705 6.75 17.56 0.102 24.32z"  horiz-adv-x="1024" />

    
    <glyph glyph-name="hycaidan" unicode="&#58940;" d="M885.375 677.367h-746.751c-14.728 0-26.669 11.941-26.669 26.669s11.941 26.669 26.669 26.669h746.751c14.728 0 26.669-11.941 26.669-26.669s-11.941-26.669-26.669-26.669zM618.679 357.33h-480.053c-14.728 0-26.669 11.941-26.669 26.669 0 14.728 11.941 26.669 26.669 26.669h480.053c14.728 0 26.669-11.941 26.669-26.669 0-14.727-11.941-26.669-26.669-26.669zM885.375 37.295h-746.751c-14.728 0-26.669 11.941-26.669 26.669s11.941 26.669 26.669 26.669h746.751c14.728 0 26.669-11.941 26.669-26.669 0.001-14.728-11.941-26.669-26.669-26.669z"  horiz-adv-x="1024" />

    
    <glyph glyph-name="kefu" unicode="&#59166;" d="M917.815652 531.834435C863.855304 705.068522 703.020522 831.154087 512 831.154087S160.144696 705.068522 106.184348 531.834435C55.251478 492.922435 22.26087 431.727304 22.26087 362.696348c0-92.204522 58.701913-170.473739 140.688696-200.080696 65.758609-94.564174 168.559304-161.146435 287.588174-178.44313 7.346087-27.202783 31.944348-47.326609 61.462261-47.326609 35.261217 0 63.866435 28.605217 63.866435 63.866435 0 35.283478-28.605217 63.888696-63.866435 63.888696-25.889391 0-48.061217-15.471304-58.078609-37.598609-89.778087 13.757217-169.093565 58.457043-226.949565 123.191652 2.760348-0.111304 5.476174-0.422957 8.236522-0.422957 47.014957 0 85.170087 38.13287 85.170087 85.170087L320.378435 490.451478c0 47.037217-38.15513 85.170087-85.170087 85.170087-25.35513 0-49.574957-4.652522-72.102957-12.777739C223.165217 695.852522 356.574609 788.569043 512 788.569043s288.834783-92.716522 348.91687-225.725217c-22.528 8.125217-46.747826 12.777739-72.102957 12.777739-47.014957 0-85.170087-38.13287-85.170087-85.170087l0-255.510261c0-47.037217 38.15513-85.170087 85.170087-85.170087 117.604174 0 212.925217 95.321043 212.925217 212.925217C1001.73913 431.727304 968.748522 492.922435 917.815652 531.834435zM512 22.016c11.753739 0 21.303652-9.527652 21.303652-21.303652 0-11.753739-9.549913-21.281391-21.303652-21.281391s-21.303652 9.527652-21.303652 21.281391C490.696348 12.488348 500.246261 22.016 512 22.016zM277.793391 490.451478l0-255.510261c0-23.529739-19.055304-42.585043-42.585043-42.585043-94.096696 0-170.340174 76.243478-170.340174 170.340174s76.265739 170.340174 170.340174 170.340174C258.715826 533.036522 277.793391 513.981217 277.793391 490.451478zM788.813913 192.378435c-23.529739 0-42.585043 19.055304-42.585043 42.585043L746.22887 490.451478c0 23.529739 19.055304 42.585043 42.585043 42.585043 94.096696 0 170.340174-76.243478 170.340174-170.340174S882.888348 192.378435 788.813913 192.378435z"  horiz-adv-x="1024" />

    
    <glyph glyph-name="comiisgonggao" unicode="&#58941;" d="M797.591 115.982c-6.070 0-11.976 3.133-15.26 8.75-4.925 8.421-2.091 19.23 6.332 24.154 40.406 23.622 74.286 57.451 97.961 97.83 24.377 41.574 37.263 89.184 37.263 137.673 0 48.074-12.678 95.325-36.667 136.648-23.295 40.117-56.67 73.888-96.522 97.652-8.377 4.991-11.118 15.832-6.123 24.208 4.993 8.373 15.834 11.119 24.209 6.122 44.994-26.835 82.678-64.959 108.976-110.252 27.109-46.706 41.442-100.084 41.442-154.379 0-54.762-14.562-108.55-42.113-155.534-26.734-45.589-64.98-83.785-110.603-110.456-2.799-1.639-5.865-2.417-8.895-2.417v0zM704.394 230.393c-6.070 0-11.976 3.129-15.26 8.746-4.925 8.419-2.091 19.236 6.33 24.154 20.732 12.119 38.112 29.476 50.258 50.193 12.504 21.32 19.109 45.737 19.109 70.609 0 24.659-6.5 48.89-18.805 70.081-11.946 20.58-29.070 37.907-49.515 50.101-8.379 4.992-11.116 15.832-6.123 24.207 4.997 8.374 15.836 11.115 24.207 6.119 25.587-15.256 47.018-36.94 61.97-62.697 15.423-26.568 23.578-56.937 23.578-87.813 0-31.149-8.285-61.739-23.96-88.471-15.198-25.928-36.949-47.646-62.893-62.818-2.803-1.633-5.873-2.413-8.897-2.413v0zM566.925-10.137c-31.957 0-63.73 21.708-68.22 24.891l-33.998 23.716c-7.995 5.576-9.959 16.58-4.383 24.582 5.581 7.999 16.585 9.958 24.585 4.383l34.198-23.852c8.958-6.328 38.502-23.122 55.77-17.245 6.218 2.118 12.102 4.116 12.817 36.707l-0 641.079c-1.829 30.618-8.369 33.581-15.927 37.007-16.133 7.308-43.537-9.978-51.861-16.614l-0.455-0.352-210.532-157.612c-47.358-38.545-111.886-36.931-119.16-36.611-44.834-0.203-82.775-33.994-88.423-78.799l-1.223-12.138v-110.509l1.223-12.147c5.663-44.901 43.76-78.75 88.723-78.798 0.619 0.010 1.238 0.010 1.853 0.010 60.97 0 111.989-33.447 114.151-34.883 3.285-2.199 79.547-53.989 119.462-140.397 4.091-8.85 0.228-19.347-8.625-23.432-8.851-4.086-19.342-0.229-23.433 8.623-35.223 76.258-104.661 124.231-106.968 125.807-1.664 1.080-46.193 29.548-96.124 28.964l-0.208-0.004c-62.864 0-116.128 47.27-123.896 109.955l-0.050 0.407-1.422 14.118v114.058l1.472 14.526c7.767 62.682 61.032 109.952 123.896 109.952l0.981-0.030c0.528-0.023 57.303-2.548 95.708 28.9l0.605 0.47 210.638 157.697c1.965 1.539 12.831 9.858 27.222 16.548 22.88 10.637 43.982 12.178 61.023 4.453 8.648-3.917 17.626-9.087 24.673-20.28 6.941-11.023 10.743-26.070 11.966-47.363l0.030-1.010v-641.976l-0.006-0.188c-0.596-27.813-3.976-58.422-36.755-69.568-6.299-2.146-12.815-3.045-19.324-3.045v0z"  horiz-adv-x="1024" />

    
    <glyph glyph-name="icon" unicode="&#58912;" d="M937.542 43.067c-34.691 21.747-77.323 31.723-135.339 46.138-68.055 16.9-158.887 29.187-150.928 107.524-52.899-48.607-143.68-66.111-217.444-35.841-23.449 9.625-39.206 29.598-56.278 28.161 4.749-76.301-88.009-84.508-150.931-99.845-61.123-14.899-105.126-26.574-140.166-51.37 111.868-101.805 259.909-164.465 422.667-164.465 165.548 0 315.919 64.772 428.42 169.698zM556.622 893.088c-211.295 18.192-314.537-126.238-283.953-337.941-8.357-3.58-20.621-3.253-23.023-12.798 0.573-63.434 12.476-115.521 58.836-133.126 23.084-104.169 96.652-226.135 227.673-209.932 105.823 13.083 163.779 115.839 186.747 209.932 44.547 17.993 60.508 77.302 56.278 135.683-0.955 10.14-16.988 5.187-23.023 10.24 37.953 165.823-57.716 325.733-199.536 337.942z"  horiz-adv-x="1024" />

    
    <glyph glyph-name="fangdajing" unicode="&#58880;" d="M958.678-24.973l-245.26 245.26c22.842 26.868 41.352 56.853 55.15 89.475 18.125 42.851 27.314 88.354 27.314 135.248 0 46.893-9.189 92.397-27.314 135.247-17.5 41.376-42.549 78.53-74.449 110.431-31.9 31.9-69.055 56.948-110.431 74.449-42.851 18.125-88.354 27.314-135.247 27.314s-92.397-9.189-135.247-27.314c-41.376-17.5-78.53-42.549-110.43-74.449-31.9-31.9-56.949-69.055-74.449-110.431C110.19 537.407 101 491.903 101 445.01c0-67.185 19.214-132.383 55.564-188.547 7.502-11.592 22.98-14.906 34.572-7.403 11.591 7.502 14.906 22.979 7.404 34.571C167.439 331.683 151 387.487 151 445.01c0 79.449 30.939 154.143 87.118 210.322s130.873 87.118 210.322 87.118 154.144-30.939 210.323-87.118c56.179-56.179 87.118-130.873 87.118-210.322 0-79.45-30.939-154.143-87.118-210.323-56.18-56.179-130.874-87.118-210.323-87.118-55.324 0-109.306 15.287-156.11 44.208-11.748 7.258-27.151 3.619-34.409-8.126-7.258-11.746-3.62-27.151 8.126-34.409 54.708-33.805 117.779-51.673 182.394-51.673 46.893 0 92.396 9.189 135.247 27.313 34.763 14.704 66.531 34.755 94.722 59.702l244.913-244.913c4.882-4.882 11.279-7.322 17.678-7.322s12.796 2.44 17.678 7.322C968.44-50.565 968.44-34.735 958.678-24.973z"  horiz-adv-x="1024" />

    
    <glyph glyph-name="xuexiao" unicode="&#58959;" d="M925.761 617.478l-16.543-49.136c0 0-79.438 196.571-314.467 245.72 0 0-96.866 21.943-198.602 0-13.964-7.978-254.891-85.18-297.917-311.249 0 0 9.928-68.815 49.647 0 0 0 23.171 176.919 281.368 262.098h182.062c0 0 211.845-72.075 264.812-245.72l16.556-81.906 49.641-16.392 16.556 196.584h-33.112zM876.12 259.493c0 0-23.171-176.919-281.369-262.098l-182.060-0c0 0-211.845 72.075-264.813 245.72l-16.549 81.906-49.654 16.392-16.548-196.584h33.105l16.549 49.136c0 0 116.962-225.769 314.467-245.72 83.788-19.951 198.617 0 198.617 0s254.884 85.18 297.897 311.248c0 0-9.928 68.815-49.641 0z"  horiz-adv-x="1024" />

    
    <glyph glyph-name="compose" unicode="&#58995;" d="M909.448546 683.120588l-447.443705-446.335465-121.522728-24.302499 24.306592 121.524774L811.119053 781.449058l18.786878-18.780739L382.464273 316.33080800000005l61.867046-61.868069 446.335465 447.438589L909.448546 683.120588 909.448546 683.120588zM926.022013 700.800249l22.095227 22.094204c15.467273 14.362102 15.467273 38.667671 0 53.028751l-44.190455 44.193525c-14.364149 15.468296-38.665625 15.468296-53.03182 0L828.799738 798.022525 926.022013 700.800249zM824.380078 497.51638l0-491.63109L133.882732 5.8852900000000545 133.882732 696.38059l486.1124 0 69.601194 68.495L64.281537 764.87559l0-828.592518 828.592518 0L892.874055 566.0113799999999 824.380078 497.51638 824.380078 497.51638zM824.380078 497.51638"  horiz-adv-x="1024" />

    
    <glyph glyph-name="play" unicode="&#58996;" d="M957.916421 423.137369c-8.258081 91.945085-41.647539 173.73488-100.166327 244.948805C802.643008 735.149569 733.485929 782.23291 650.96447 809.397596c-38.816051 12.780071-78.706573 19.897166-119.567189 21.526269-2.308579 0.089028-4.602831 0.50449-6.903224 0.769526l-25.00858 0c-7.623631-0.61603-15.240099-1.282203-22.864754-1.837858-46.217624-3.364631-90.757027-13.974269-133.580345-31.546483-71.619154-29.392424-131.702578-74.376964-180.201152-134.699842-44.959981-55.915497-74.873268-119.127168-88.957031-189.413977-4.66423-23.260773-5.981225-47.190789-8.832156-70.811766-0.23843-1.961678-0.50449-3.924379-0.760317-5.886057l0-28.009937c0.632403-7.433296 1.325182-14.863523 1.890047-22.306029 3.342118-44.159756 12.930497-86.960561 29.724998-127.897925 50.452065-122.970706 138.101311-208.217229 262.123976-255.745708 40.197514-15.400758 82.133625-23.638373 125.158535-26.301016 85.430718-5.288446 166.06213 11.920494 241.327324 52.55496 73.248258 39.543621 131.063011 95.51847 173.500543 167.203116 25.590841 43.22957 43.249013 89.543386 53.03796 138.808416C959.412494 337.898009 961.757912 380.34475 957.916421 423.137369zM512.174474-8.395972000000029c-216.483496 0.035816-392.252709 175.906336-392.081817 392.296711 0.174985 216.766952 175.744653 392.20666 392.257825 391.964136 216.553081-0.24457 391.552767-174.658925 391.82599-391.890458C904.450718 167.61781099999996 729.924823-7.668401000000017 512.174474-8.395972000000029zM649.009955 414.922267l0 0.816598L419.092495 548.480098l-0.342808-0.199545c-5.378497 2.64627-11.408841 4.172019-17.803481 4.172019-21.388123 0-38.853913-16.646122-40.243563-37.683251l-0.137123-0.083911 0-259.538081 0.039909-0.023536c0.431835-21.928429 18.308995-39.576367 40.340777-39.576367 7.073092 0 13.72049 1.832741 19.500123 5.027503l0.23536-0.13303 228.329289 131.825374 0 0.818645c8.806573 7.414877 14.423501 18.505469 14.423501 30.91408C663.433456 396.417821 657.817552 407.505343 649.009955 414.922267z"  horiz-adv-x="1024" />

    
    <glyph glyph-name="error-outline" unicode="&#58997;" d="M694.523545 246.16577199999995c12.465916-12.530384 12.431124-32.726356-0.064468-45.190225-6.233981-6.206352-14.382569-9.337669-22.566972-9.337669-8.214079 0-16.396435 3.131317-22.630417 9.399067L511.819386 338.89470900000003 373.92376 202.47469c-6.232958-6.14086-14.3488-9.237385-22.469758-9.237385-8.248871 0-16.460904 3.165086-22.723537 9.490142-12.403494 12.56313-12.311397 32.767288 0.25378 45.197388l137.733944 136.229684L329.496921 521.823995c-12.465916 12.496615-12.431124 32.731472 0.064468 45.197388 12.495592 12.496615 32.69668 12.43317 45.197388-0.066515l137.412626-137.827065 137.89051 136.422066c12.529361 12.431124 32.79594 12.304234 45.197388-0.25378 12.431124-12.564154 12.305257-32.79594-0.257873-45.198411L557.270555 383.86697000000004 694.523545 246.16577199999995 694.523545 246.16577199999995zM64.264141 369.48849499999994l0 28.010961c0.255827 1.961678 0.521886 3.924379 0.760317 5.887081 2.851954 23.622 4.168949 47.553039 8.833179 70.815859 14.084787 70.290903 44.00012 133.505643 88.962148 189.423187 48.500621 60.32697 108.587114 105.313557 180.210361 134.707005 42.825364 17.572214 87.367837 28.183899 133.588531 31.54853 7.624654 0.554632 15.242146 1.221828 22.864754 1.837858l25.010627 0c2.300392-0.265036 4.594645-0.680499 6.903224-0.769526 40.862663-1.629103 80.755232-8.746198 119.573329-21.528316 82.526575-27.166733 151.686724-74.253144 206.79688-141.319609 58.521858-71.218018 91.913363-153.011906 100.172467-244.962108 3.841491-42.793642 1.497097-85.243453-6.866385-127.341247-9.788947-49.2681-27.448142-95.583962-53.04103-138.815579-42.439578-71.688739-100.256378-127.666658-173.508729-167.211303-75.269287-40.636512-155.904793-57.846476-241.339604-52.55803-43.026956 2.663666-84.966137 10.901281-125.164674 26.302039C233.989707 11.04684599999996 146.335345 96.297462 95.881233 219.27430800000002c-16.795525 40.939411-26.384927 83.742263-29.727045 127.905088C65.589322 354.622926 64.896544 362.054175 64.264141 369.48849499999994L64.264141 369.48849499999994zM512.174474-8.417461000000003c217.761606 0.727571 392.296711 176.022992 392.023488 392.391878-0.274246 217.242789-175.282119 391.667378-391.847479 391.911948-216.524428 0.242524-392.103306-175.206394-392.278291-391.984602C119.900276 167.49910799999998 295.679721-8.380622000000017 512.174474-8.417461000000003L512.174474-8.417461000000003zM512.174474-8.417461000000003"  horiz-adv-x="1024" />

    
    <glyph glyph-name="error" unicode="&#58998;" d="M511.996418 831.733301c-246.859317 0-447.730231-200.842261-447.730231-447.728184 0-246.895133 200.843284-447.737394 447.730231-447.737394 246.864434 0 447.736371 200.842261 447.736371 447.737394C959.732789 630.89104 758.890528 831.733301 511.996418 831.733301L511.996418 831.733301zM694.642249 246.096187c12.472056-12.537548 12.438287-32.743752-0.064468-45.214784-6.237051-6.209422-14.390755-9.342786-22.578228-9.342786-8.219195 0-16.405645 3.133364-22.642696 9.403161L511.840876 338.875267 373.870548 202.38259300000004c-6.237051-6.144954-14.355963-9.242502-22.482037-9.242502-8.251941 0-16.470113 3.166109-22.735817 9.495258-12.409634 12.56927-12.317537 32.783661 0.25378 45.220924l137.807622 136.301316L329.41915 521.903813c-12.472056 12.502755-12.437264 32.748868 0.064468 45.220924 12.503778 12.503778 32.715099 12.440333 45.221948-0.066515l137.486304-137.901767L650.157081 565.653223c12.536524 12.438287 32.813337 12.311397 45.220924-0.25378 12.438287-12.571317 12.31242-32.813337-0.257873-45.221948L557.31558 383.87106300000005 694.642249 246.096187 694.642249 246.096187zM694.642249 246.096187"  horiz-adv-x="1024" />

    
    <glyph glyph-name="yduidanxuankuangxuanzhong" unicode="&#58999;" d="M288.252565 383.99693c0-29.28907 5.820566-58.564837 17.032932-85.621053 11.206226-27.061332 27.79095-51.881624 48.501644-72.589248 20.710694-20.709671 45.526893-37.294394 72.589248-48.500621 27.056216-11.211343 56.337099-17.032932 85.625146-17.032932 29.28907 0 58.564837 5.820566 85.622076 17.032932 27.061332 11.206226 51.881624 27.79095 72.589248 48.500621 20.710694 20.706601 37.294394 45.526893 48.500621 72.589248 11.211343 27.056216 17.032932 56.333006 17.032932 85.621053 0 29.290093-5.820566 58.569954-17.032932 85.626169-11.206226 27.061332-27.789926 51.877531-48.500621 72.589248-20.706601 20.710694-45.526893 37.294394-72.589248 48.501644-27.056216 11.211343-56.333006 17.031908-85.622076 17.031908-29.288047 0-58.56893-5.820566-85.625146-17.031908-27.061332-11.207249-51.877531-27.79095-72.589248-48.501644s-37.295418-45.526893-48.501644-72.589248C294.074154 442.566884 288.252565 413.287023 288.252565 383.99693L288.252565 383.99693zM288.252565 383.99693M64.267211 369.488495l0 28.010961c0.255827 1.961678 0.521886 3.924379 0.760317 5.886057 2.851954 23.622 4.168949 47.552016 8.832156 70.814836 14.08581 70.289879 44.00012 133.50462 88.962148 189.422164 48.500621 60.325947 108.586091 105.312534 180.209338 134.705981 42.825364 17.572214 87.366813 28.183899 133.586484 31.54853 7.624654 0.554632 15.243169 1.221828 22.865777 1.837858l25.010627 0c2.299369-0.265036 4.594645-0.680499 6.903224-0.769526 40.862663-1.629103 80.755232-8.746198 119.573329-21.527292 82.525552-27.166733 151.684678-74.252121 206.794833-141.319609 58.520835-71.216995 91.911316-153.009859 100.171444-244.960061 3.841491-42.793642 1.497097-85.243453-6.865361-127.3392-9.78997-49.2681-27.448142-95.583962-53.04103-138.815579-42.439578-71.687716-100.256378-127.664611-173.508729-167.210279-75.269287-40.635489-155.904793-57.845453-241.337557-52.557006-43.026956 2.663666-84.965114 10.900258-125.163651 26.302039-124.028804 47.530526-211.682144 132.782166-262.136256 255.757988-16.796548 40.940434-26.384927 83.742263-29.727045 127.904065C65.592392 354.623949 64.899614 362.054175 64.267211 369.488495L64.267211 369.488495zM512.174474-8.414391c217.760582 0.727571 392.293641 176.021969 392.020418 392.388808-0.274246 217.240743-175.281095 391.664308-391.844409 391.908878-216.523405 0.242524-392.100236-175.205371-392.276245-391.982556C119.903346 167.501154 295.680744-8.378575 512.174474-8.414391L512.174474-8.414391zM512.174474-8.414391"  horiz-adv-x="1024" />

    
    <glyph glyph-name="yduidanxuankuang" unicode="&#59000;" d="M64.2887 369.489518l0 28.009937c0.255827 1.961678 0.521886 3.924379 0.760317 5.886057 2.851954 23.620977 4.167926 47.549969 8.832156 70.811766 14.083763 70.287833 43.99705 133.49848 88.957031 189.413977 48.498574 60.322877 108.580974 105.307418 180.201152 134.699842 42.823318 17.572214 87.363743 28.181853 133.581368 31.546483 7.624654 0.554632 15.242146 1.221828 22.864754 1.837858l25.00858 0c2.300392-0.265036 4.594645-0.680499 6.903224-0.769526 40.860617-1.629103 80.751139-8.746198 119.567189-21.526269 82.522482-27.16571 151.679561-74.249051 206.785623-141.312446 58.518788-71.213925 91.907223-153.003719 100.166327-244.948805 3.841491-42.791595 1.497097-85.23936-6.865361-127.334083-9.788947-49.266054-27.447119-95.578846-53.03796-138.808416-42.437531-71.684646-100.252285-127.659495-173.500543-167.203116-75.265194-40.634466-155.896606-57.843406-241.326301-52.55496-43.024909 2.663666-84.96102 10.900258-125.158535 26.301016-124.022665 47.52848-211.67191 132.775003-262.123976 255.745708-16.795525 40.937364-26.38288 83.73817-29.724998 127.897925C65.613882 354.624972 64.921103 362.055199 64.2887 369.489518L64.2887 369.489518zM512.174474-8.395972c217.750349 0.727571 392.276245 176.013783 392.001999 392.370389-0.274246 217.231533-175.272909 391.645888-391.82599 391.890458-216.513172 0.242524-392.081817-175.197184-392.257825-391.964136C119.921765 167.510364 295.690978-8.360156 512.174474-8.395972L512.174474-8.395972zM512.174474-8.395972"  horiz-adv-x="1024" />

    
    <glyph glyph-name="phone2" unicode="&#59001;" d="M233.596757 764.934942c4.711302-4.212952 11.698436-11.154038 21.067828-22.251793 13.852496-16.396435 29.342282-37.601386 44.793182-61.312414 29.966499-45.987381 48.669466-84.09121 54.057173-98.605785-1.267876-5.065366-4.847401-11.42726-11.478426-22.564925-12.486382-20.959358-29.584806-49.668213-29.584806-90.384543 0-25.946952 12.07706-53.988612 39.161928-90.906429 17.693987-24.125467 41.224914-51.267641 68.049862-78.500888 26.078958-26.474978 53.276391-50.863435 76.588329-68.662823 36.747949-28.067242 63.36005-40.040948 88.976474-40.040948 36.020378 0 64.768119 15.331173 87.863117 27.64871 12.67774 6.756891 24.735357 13.180184 33.550117 14.627139 12.477172-4.418636 48.468898-22.737864 102.078887-61.058634 45.2506-32.349779 73.130577-57.43613 85.689614-70.643943-4.174066-22.760376-17.557888-46.091758-38.129412-65.847707-12.017708-11.544941-25.75764-21.070898-39.726793-27.541263-12.100596-5.605671-24.066115-8.695033-33.685193-8.695033-55.343469 0-124.354216 23.279193-199.566198 67.326385-73.481571 43.036165-149.693324 103.879905-220.400712 175.962617-69.494771 70.846558-128.543631 147.201573-170.766268 220.796732-21.014616 36.633339-37.181831 71.51887-48.059576 103.684454-10.5421 31.159674-15.884782 59.024302-15.884782 82.807984 0 7.966439 3.641947 18.702967 10.253528 30.234605 7.844665 13.684674 19.590174 28.16241 33.95944 41.851177 13.525038 12.882402 29.107945 24.731264 43.881416 33.360805C223.357556 760.352577 229.190401 763.125737 233.596757 764.934942M241.120105 831.712835c-52.008514 0-176.836521-94.456279-176.836521-180.941002 0-252.803703 435.125145-714.482621 718.585055-714.482621 78.025051 0 176.845731 83.816964 176.845731 180.954305 0 33.255405-202.847941 180.942025-249.660106 180.942025-48.109718 0-83.217307-42.568515-124.826983-42.568515S376.357182 423.256072 376.357182 469.814458c0 46.577828 41.60456 69.185732 41.60456 117.084649C417.960719 621.497089 293.129642 831.712835 241.120105 831.712835L241.120105 831.712835 241.120105 831.712835zM241.120105 831.712835"  horiz-adv-x="1024" />

    
    <glyph glyph-name="phone1" unicode="&#59002;" d="M369.080451 69.22794299999998l0-1.186012c-6.489808 0-11.258415-0.51063-14.038738-0.51063l-3.295046 0c-69.203128 0-124.909871 55.324026-126.863363 124.430964-1.051959 33.932834 11.193947 66.774823 34.44244 91.431386 23.251563 24.657586 54.686507 39.10974 88.586594 40.073694 0.317225 0 3.742231 0.189312 4.028757 0.189312 26.576285 0 52.027957-8.31334 73.938989-24.272823 30.730908-10.840906 61.781088 4.319375 92.128257 44.995797 30.190603 40.390919 36.553521 72.401983 18.869766 95.169523-6.299473 4.542456-12.345166 9.915837-18.35709 16.312524-1.055029 1.020236-2.044566 2.143826-2.972705 3.295046-19.859303 22.415522-31.245631 50.78157-32.141024 80.010265-1.916653 70.131267 53.343929 128.717593 123.152854 130.698714 0.322341 0 3.581572 0.063445 3.904936 0.063445 58.744939 0 110.679775-41.633213 123.470079-99.007945 10.328229-31.850405 36.679387-158.074202-90.118484-327.628876C526.520203 86.20357000000001 412.635433 69.22794299999998 369.080451 69.22794299999998L369.080451 69.22794299999998zM364.99132 133.28077199999996c18.960841-0.416486 118.512161 2.237971 227.466642 148.32107 111.292736 148.8317 85.961814 253.212002 79.723739 272.658913-7.099698 31.146371-32.775474 51.742455-61.844533 51.742455-36.680411-1.02433-64.056921-30.127158-63.127759-64.954361 0.576121-18.48398 9.305947-31.94762 16.531512-39.938618 0.224104-0.258896 0.478907-0.547469 0.673335-0.801249 4.030803-4.347005 7.80271-7.641027 11.544941-10.069333 2.366907-1.567705 4.573155-3.429099 6.42534-5.569856 19.603477-22.096251 57.561997-83.784218-13.272281-178.508603-45.762253-61.238736-92.64605-74.063833-123.920334-74.094532-16.08842 0-32.073486 3.289929-47.488571 9.721409-2.65548 1.11745-5.182023 2.591011-7.452739 4.383844-7.964392 6.263657-21.076014 13.750165-38.408775 13.750165-18.959817-0.547469-34.536584-7.515161-46.02115-19.699668-11.508102-12.247952-17.585517-28.27395-17.071817-45.091988 0.955768-34.375925 28.619828-61.210084 62.931285-61.210084 0.160659 0 0.197498-0.030699 0.064468-0.065492 1.184989 0.197498 2.494821 0.355087 3.264347 0.420579C358.43295 134.304078 361.789395 134.05132100000003 364.99132 133.28077199999996L364.99132 133.28077199999996zM364.99132 133.28077199999996M511.997442-63.71488099999999c-60.180638 0-118.546953 11.739369-173.48724 34.859949-16.281825 6.875594-23.921829 25.613354-17.046235 41.894156 6.843872 16.305361 25.613354 23.887037 41.892109 17.074887 47.044456-19.794835 97.055476-29.871331 148.674111-29.871331 211.608465 0 383.755174 172.146709 383.755174 383.761314 0 211.605396-172.146709 383.753127-383.755174 383.753127-211.607442 0-383.752104-172.147732-383.752104-383.753127 0-72.343655 20.240997-142.791124 58.520835-203.77608 9.369392-14.968923 4.860704-34.70236-10.076496-44.070728-14.9679-9.402137-34.695197-4.894474-44.098357 10.079566-44.735877 71.211878-68.340481 153.436578-68.340481 237.768265 0 246.847038 200.835098 447.709765 447.712835 447.709765 246.882853 0 447.716928-200.834074 447.716928-447.709765C959.713346 137.148869 758.880295-63.71488099999999 511.997442-63.71488099999999L511.997442-63.71488099999999zM511.997442-63.71488099999999"  horiz-adv-x="1024" />

    
    <glyph glyph-name="location" unicode="&#59003;" d="M570.852898 495.303992c13.239536 13.244652 20.946055 31.854499 20.946055 50.577932 0 18.72855-7.705496 37.337373-20.946055 50.578955-13.242606 13.241582-31.852452 20.953218-50.582025 20.953218-18.72241 0-37.335327-7.710612-50.576909-20.953218-13.240559-13.240559-20.952194-31.850405-20.952194-50.578955 0-18.723434 7.710612-37.332257 20.952194-50.577932 13.240559-13.236466 31.854499-20.952194 50.576909-20.952194C539.000446 474.352821 557.609269 482.06855 570.852898 495.303992L570.852898 495.303992zM570.852898 495.303992M515.258719 64.55962099999999l0.005117 0c13.894452 0 26.985608 6.440689 35.297924 17.377786 76.839039 101.042277 252.387217 345.228719 252.387217 467.153606 0 156.091034-128.800481 282.619776-287.690258 282.619776-158.88159 0-287.676955-126.527718-287.676955-282.619776 0-121.923864 175.555341-366.127701 252.383124-467.160769C488.281297 70.996217 501.364267 64.55962099999999 515.258719 64.55962099999999L515.258719 64.55962099999999zM515.258719 780.1893680000001c129.71327 0 235.239676-103.662965 235.239676-231.094262 0-68.455091-81.8164-220.150002-215.45712-400.991744-4.602831-6.223748-11.948123-9.902534-19.777439-9.902534-7.826246 0-15.175631 3.678786-19.773346 9.902534-133.645836 180.842765-215.467353 332.528466-215.467353 400.991744C280.023136 676.526403 385.555681 780.1893680000001 515.258719 780.1893680000001L515.258719 780.1893680000001zM515.258719 780.1893680000001M871.352903 110.32494399999996c-13.803377 13.653975-32.705889 24.934902-54.636365 32.614815-22.484084 7.873318-47.324842 11.871375-73.858148 11.871375l-3.319605-0.029676-3.971451-0.344854c-12.230556-1.197268-21.817911-11.393491-22.298865-23.710005-0.279363-6.618744 2.060939-12.950963 6.557346-17.817808 4.502547-4.869914 10.617825-7.694239 17.234523-7.955182l29.051663-1.13894 1.599428 0.052189c42.36283-5.327332 63.414285-23.298636 68.88488-28.700669 6.293333-6.217608 10.206456-13.160741 10.206456-18.11866 0-8.502651-17.825994-29.147854-85.293595-46.464241-62.448284-16.013719-150.551878-24.841781-248.082168-24.841781-97.615225 0-186.236612 8.92323-249.527077 25.107841-68.574818 17.547655-86.698594 38.232766-86.698594 46.715975 0 12.131295 3.776 19.357883 13.452383 25.787316 13.035898 8.65717 34.643008 14.340613 63.748906 16.907065 0.971118-0.149403 1.960655-0.239454 4.674463-0.239454 0.147356 0 28.624944 1.632173 28.624944 1.632173 13.659091 0.808412 24.127514 12.559037 23.337521 26.213012-0.773619 13.307074-11.95324 23.336498-26.006304 23.336498-0.025583 0-4.220115-0.240477-4.198625-0.240477-54.100152-1.173732-92.544743-9.813506-117.53695-26.417673-23.576975-15.669888-35.538401-38.20309-35.538401-66.973344 0-23.410176 13.258978-43.927465 39.423895-60.983933 20.13048-13.131065 48.547693-24.445762 84.464717-33.630958 67.201541-17.200754 160.16584-26.663266 261.778098-26.663266 101.550861 0 194.023972 9.372461 260.361843 26.4013 35.530215 9.106402 63.650669 20.384259 83.58365 33.515325 25.789363 16.98586 38.864146 37.4571 38.864146 60.835553C896.237663 75.813942 887.637798 94.24163999999996 871.352903 110.32494399999996L871.352903 110.32494399999996zM871.352903 110.32494399999996"  horiz-adv-x="1024" />

    
    <glyph glyph-name="shield-outline" unicode="&#59004;" d="M512.001535-63.71999800000003l-9.508561 3.679809c-305.311591 118.010741-340.617701 272.260847-340.617701 378.013403L161.875273 721.895707l27.254737-0.930185c212.224496-7.227612 302.595736 88.554872 303.444057 89.48608l19.453051 21.268396 19.426445-21.268396c0.713244-0.768503 86.358857-89.870844 280.771685-89.870844l0.031722 0c7.390317 0 14.944364 0.107447 22.611997 0.384763l27.254737 0.930185 0-403.922493c0-105.753579-35.307134-260.002662-340.617701-378.013403L512.001535-63.71999800000003 512.001535-63.71999800000003zM214.573495 667.878442l0-349.905228c0-56.875359 0.028653-207.02917 297.42804-325.147358 297.425993 118.118188 297.425993 268.272 297.425993 325.147358L809.427528 667.878442c-164.6909 0.633427-259.455193 59.240219-297.425993 89.517803C474.001059 727.149361 379.235742 668.567127 214.573495 667.878442L214.573495 667.878442zM275.955494 361.79834900000003l54.153364 43.88244 108.368126-79.957053c0 0 149.629879 154.797575 294.098201 227.033783l20.635993-23.245424c0 0-180.570565-149.636019-273.441742-348.312964L275.955494 361.79834900000003 275.955494 361.79834900000003zM275.955494 361.79834900000003"  horiz-adv-x="1024" />

    
    <glyph glyph-name="qrscan" unicode="&#59005;" d="M924.845211 349.56472299999996l-825.859267 0c-19.015076 0-34.444487 15.429411-34.444487 34.435277 0 19.015076 15.429411 34.44551 34.444487 34.44551l825.859267 0c19.042705 0 34.44551-15.430434 34.44551-34.44551C959.285604 364.99413400000003 943.888939 349.56472299999996 924.845211 349.56472299999996L924.845211 349.56472299999996 924.845211 349.56472299999996zM856.400353-63.72306800000001L649.761062-63.72306800000001c-19.041682 0-34.43937 15.402805-34.43937 34.444487 0 19.044752 15.397688 34.44244 34.43937 34.44244l206.639291 0c19.010983 0 34.441417 15.429411 34.441417 34.434254L890.841769 211.80212600000004c0 19.042705 15.391549 34.440393 34.44551 34.440393 19.042705 0 34.43016-15.397688 34.43016-34.440393l0-172.20299C959.721533-17.360134000000016 913.363715-63.72306800000001 856.400353-63.72306800000001L856.400353-63.72306800000001 856.400353-63.72306800000001zM339.801615-63.72306800000001L167.597601-63.72306800000001c-56.957223 0-103.317087 46.363957-103.317087 103.322204L64.280514 211.80212600000004c0 19.042705 15.431457 34.440393 34.4363 34.440393 19.015076 0 34.444487-15.397688 34.444487-34.440393l0-172.20299c0-19.004843 15.461133-34.434254 34.4363-34.434254l172.198897 0c19.015076 0 34.44551-15.397688 34.44551-34.44244C374.242008-48.321285999999986 358.811574-63.72306800000001 339.801615-63.72306800000001L339.801615-63.72306800000001 339.801615-63.72306800000001zM98.721931 521.767713c-19.009959 0-34.4363 15.425318-34.4363 34.435277L64.28563 728.401888c0 56.969503 46.354747 103.322204 103.31197 103.322204l172.198897 0c19.015076 0 34.44551-15.430434 34.44551-34.43937 0-19.005866-15.430434-34.435277-34.44551-34.435277L167.597601 762.849444c-18.975167 0-34.4363-15.464203-34.4363-34.446533l0-172.197874C133.161301 537.193031 117.73189 521.767713 98.721931 521.767713L98.721931 521.767713 98.721931 521.767713zM925.287279 521.767713c-19.053961 0-34.44551 15.425318-34.44551 34.435277L890.841769 728.401888c0 18.978237-15.425318 34.446533-34.441417 34.446533L649.761062 762.848421c-19.041682 0-34.43937 15.429411-34.43937 34.435277 0 19.008936 15.397688 34.43937 34.43937 34.43937l206.639291 0c56.963363 0 103.31811-46.352701 103.31811-103.322204l0-172.197874C959.721533 537.193031 944.329984 521.767713 925.287279 521.767713L925.287279 521.767713 925.287279 521.767713zM925.287279 521.767713"  horiz-adv-x="1024" />

    
    <glyph glyph-name="shield" unicode="&#59006;" d="M834.868967 720.965521c-7.667633-0.277316-15.22168-0.384763-22.611997-0.384763l-0.031722 0c-194.412828 0-280.05844 89.102341-280.771685 89.870844l-19.426445 21.268396-19.454074-21.268396c-0.848321-0.931209-91.220584-96.714715-303.444057-89.48608l-27.254737 0.930185L161.874249 317.97219099999995c0-105.752556 35.307134-260.001639 340.617701-378.013403l9.508561-3.679809 9.504468 3.679809c305.310567 118.011764 340.617701 272.26187 340.617701 378.013403L862.122681 721.895707 834.868967 720.965521zM477.185588 198.22080600000004L273.371646 378.81900099999996l54.153364 43.88244 108.368126-79.957053c0 0 149.629879 154.797575 294.097178 227.033783l20.635993-23.245424C750.626307 546.53377 570.056766 396.897751 477.185588 198.22080600000004z"  horiz-adv-x="1024" />

    
    <glyph glyph-name="discover" unicode="&#59007;" d="M64.2887 369.48849499999994l0 28.009937c0.255827 1.961678 0.521886 3.924379 0.760317 5.886057 2.851954 23.620977 4.167926 47.549969 8.832156 70.811766 14.083763 70.287833 43.99705 133.49848 88.957031 189.413977 48.498574 60.322877 108.580974 105.307418 180.201152 134.699842 42.823318 17.572214 87.363743 28.181853 133.580345 31.546483 7.624654 0.554632 15.242146 1.221828 22.864754 1.837858l25.00858 0c2.300392-0.265036 4.594645-0.680499 6.903224-0.769526 40.860617-1.629103 80.751139-8.746198 119.567189-21.526269 82.522482-27.164686 151.679561-74.249051 206.785623-141.312446 58.518788-71.213925 91.907223-153.003719 100.166327-244.948805 3.841491-42.792619 1.497097-85.23936-6.865361-127.334083-9.788947-49.266054-27.447119-95.578846-53.03796-138.808416-42.437531-71.684646-100.252285-127.659495-173.500543-167.203116-75.265194-40.634466-155.896606-57.843406-241.327324-52.55496-43.023886 2.663666-84.96102 10.900258-125.158535 26.301016-124.022665 47.52848-211.67191 132.775003-262.123976 255.745708-16.795525 40.937364-26.38288 83.73817-29.724998 127.897925C65.613882 354.62497199999996 64.921103 362.055199 64.2887 369.48849499999994L64.2887 369.48849499999994zM512.174474-8.395972000000029c217.750349 0.727571 392.276245 176.013783 392.001999 392.370389-0.274246 217.231533-175.272909 391.646911-391.82599 391.890458-216.513172 0.242524-392.081817-175.197184-392.257825-391.964136C119.921765 167.51036399999998 295.690978-8.36015599999996 512.174474-8.395972000000029L512.174474-8.395972000000029zM512.174474-8.395972000000029M288.707936 132.18788099999995c-21.043269 0.597611-34.32783 21.291932-25.612331 40.754193 14.125719 31.516808 28.548196 62.909795 42.839691 94.355995 31.53932 69.38323 63.167668 138.741901 94.519724 208.214159 4.297886 9.519818 10.570753 15.97688 20.137643 20.309558 100.377128 45.421492 200.650903 91.092671 300.961516 136.666636 18.637476 8.472975 37.164435 0.190335 41.437761-18.442024 1.688455-7.360641-0.272199-14.07046-3.302209-20.730137-41.399899-90.970898-82.744539-181.961238-124.106576-272.943392-4.472871-9.832949-9.081843-19.61678-13.394055-29.516244-3.335978-7.643074-8.643867-12.973476-16.266475-16.431228-101.549837-46.103014-203.060789-92.307336-304.621882-138.381697C297.335431 134.244726 292.911678 133.44859399999996 288.707936 132.18788099999995L288.707936 132.18788099999995zM679.181115 551.4620130000001c-2.329045-0.895393-3.390213-1.243317-4.397147-1.702782-73.959455-33.603329-147.924028-67.190285-221.800595-100.965529-2.461051-1.122567-4.738931-3.870144-5.90243-6.408967-27.993564-61.244876-55.82954-122.5665-83.696214-183.876867-6.033413-13.279445-12.06171-26.574239-18.609847-40.990576 2.803859 1.1328 4.53427 1.757017 6.204305 2.51631 73.079412 33.203216 146.169057 66.393129 219.170698 99.768261 2.65548 1.211595 5.316076 3.877307 6.537903 6.531763 18.854417 41.024345 37.468356 82.171488 56.158021 123.272581C648.093073 483.146091 663.357731 516.680858 679.181115 551.4620130000001L679.181115 551.4620130000001zM679.181115 551.4620130000001M539.897885 383.55383800000004c-0.13303-15.518438-12.81998-27.806299-28.3947-27.497261-15.374152 0.303922-27.420513 12.591783-27.403117 27.955702 0.022513 15.387455 12.831236 28.099988 28.149107 27.934213C527.65812 411.7756 540.039101 399.072277 539.897885 383.55383800000004L539.897885 383.55383800000004zM539.897885 383.55383800000004"  horiz-adv-x="1024" />

    
    <glyph glyph-name="type" unicode="&#59008;" d="M64.570109 742.411973l894.859781 0 0-92.076068L64.570109 650.335904 64.570109 742.411973 64.570109 742.411973zM64.570109 742.411973M64.570109 430.036499l894.859781 0 0-92.077092L64.570109 337.95940800000005 64.570109 430.036499 64.570109 430.036499zM64.570109 430.036499M64.570109 117.66716599999995l894.859781 0 0-92.078115L64.570109 25.58905100000004 64.570109 117.66716599999995 64.570109 117.66716599999995zM64.570109 117.66716599999995"  horiz-adv-x="1024" />

    
    <glyph glyph-name="share3" unicode="&#59009;" d="M841.192999 53.97044800000003c0-25.989931-21.087271-47.078225-47.079248-47.078225L158.549527 6.8922229999999445c-25.984814 0-47.078225 21.087271-47.078225 47.078225L111.471302 642.458493c0 25.984814 21.093411 47.078225 47.078225 47.078225l306.012555 0L464.562083 760.1530319999999 111.472326 760.1530319999999c-38.980803 0-70.617337-31.615045-70.617337-70.617337l0-682.643472c0-38.980803 31.636534-70.617337 70.617337-70.617337l729.721697 0c39.006386 0 70.617337 31.636534 70.617337 70.617337l0 235.391125-70.617337 0L841.194022 53.97044800000003 841.192999 53.97044800000003zM972.803479 631.391437L782.815427 821.380512c-13.793144 13.793144-36.136012 13.793144-49.928133 0-13.792121-13.771655-13.792121-36.136012 0-49.929156l108.751866-108.750843c-247.938905 4.729721-476.033857-169.368432-555.621497-407.564439l65.319681-31.354102c70.198805 212.233706 304.035528 390.073066 527.660678 364.792287l-145.496745-145.473209c-13.652951-13.679557-13.652951-35.849486 0-49.529043 13.674441-13.675464 35.827997-13.675464 49.523927 0l184.222745 184.244234c1.858324 1.249457 3.904936 2.025123 5.525853 3.673669C986.5956 595.2359819999999 986.5956 617.599316 972.803479 631.391437L972.803479 631.391437zM972.803479 631.391437"  horiz-adv-x="1024" />

    
    <glyph glyph-name="share2" unicode="&#59010;" d="M92.247472 5.1597659999999905c-3.39226 0-6.78145 0-10.169617 3.38919-13.554714 6.776334-20.331048 20.330024-16.943904 33.882692 57.608046 294.811446 233.816257 481.180064 511.679705 532.010753L576.813656 733.70773c0 10.166547 6.776334 23.720238 16.941857 27.107381 10.165524 3.387144 23.718191 3.387144 30.500665-6.777357l328.689021-328.694137c6.78145-6.777357 6.78145-13.554714 6.78145-20.331048 0-6.780427-3.393283-13.557784-10.169617-20.334117L620.862895 55.985337999999956c-6.776334-6.777357-20.329001-10.165524-30.495548-6.777357-10.1645 3.38919-16.941857 13.552667-16.941857 27.111474L573.42549 238.96988199999998c-206.701712-3.38919-352.415398-74.54888-457.459826-223.645616C109.188306 8.548955999999976 99.023806 5.1597659999999905 92.247472 5.1597659999999905L92.247472 5.1597659999999905zM631.033535 665.931091L631.033535 550.7231859999999c0-13.554714-10.17064-27.111474-23.724331-30.500665-267.697925-37.270858-396.46566-203.316615-457.459826-372.742353 111.824855 105.042381 257.533424 152.48695 450.683493 152.48695 16.940834 0 27.110451-13.555737 27.110451-30.496571l0-121.990379 257.530354 257.533424L631.033535 665.931091 631.033535 665.931091zM631.033535 665.931091"  horiz-adv-x="1024" />

    
    <glyph glyph-name="feedback" unicode="&#59011;" d="M767.409552-63.70157800000004L190.482821-63.70157800000004c-53.058426 0-96.123244 43.066865-96.123244 96.127338l0 640.835274c0 53.05638 43.064818 96.122221 96.123244 96.122221l448.584692 0c17.745153 0 32.04381-14.297634 32.04381-32.039717 0-17.746176-14.299681-32.04381-32.04381-32.04381L190.482821 705.299727c-17.570167 0-32.041764-14.46955-32.041764-32.039717l0-640.835274c0-17.745153 14.471596-32.04381 32.041764-32.04381l576.751746 0c17.745153 0 32.04381 14.299681 32.04381 32.04381L799.278377 545.265894c0 17.74106 14.297634 32.039717 32.038694 32.039717 17.746176 0 32.04381-14.298658 32.04381-32.039717l0-512.667196C863.531773-20.46382200000005 820.29504-63.70157800000004 767.409552-63.70157800000004L767.409552-63.70157800000004zM767.409552-63.70157800000004M579.120189 449.137533c-8.268314 0-16.365736 3.100618-22.737864 9.476839-12.577456 12.577456-12.577456 32.728402 0 45.305859L874.902752 822.268742c12.576433 12.577456 32.733519 12.577456 45.303812 0 12.577456-12.57234 12.577456-32.728402 0-45.305859L601.686137 458.443479C595.486948 452.238151 587.21761 449.137533 579.120189 449.137533L579.120189 449.137533zM579.120189 449.137533M446.81693 449.137533L254.567371 449.137533c-17.74106 0-32.041764 14.298658-32.041764 32.04381 0 17.74106 14.300704 32.039717 32.041764 32.039717l192.249559 0c17.747199 0 32.042787-14.298658 32.042787-32.039717C478.858694 463.43619 464.563106 449.137533 446.81693 449.137533L446.81693 449.137533zM446.81693 449.137533M639.242498 256.887974L254.567371 256.887974c-17.74106 0-32.041764 14.297634-32.041764 32.042787 0 17.742083 14.300704 32.039717 32.041764 32.039717l384.500141 0c17.745153 0 32.04381-14.297634 32.04381-32.039717C671.111323 271.185608 656.812665 256.887974 639.242498 256.887974L639.242498 256.887974zM639.242498 256.887974"  horiz-adv-x="1024" />

    
    <glyph glyph-name="share1" unicode="&#59012;" d="M764.238326 211.97711200000003c-39.914058 0-75.958996-16.726963-101.369735-43.470047l-272.898367 170.298618c5.791913 15.140839 8.967232 31.54239 8.967232 48.668443 0 17.660218-3.377934 34.556027-9.512654 50.087768L665.930323 596.361619c25.207102-24.911366 59.974953-40.33873 98.302887-40.33873 76.780711 0 139.248438 61.825091 139.248438 137.845485S841.018014 831.712835 764.238326 831.712835c-76.739778 0-139.212622-61.825091-139.212622-137.845485 0-17.886369 3.460822-34.981722 9.748015-50.67003L358.497419 484.510158c-25.231661 25.180496-60.190871 40.804335-98.769514 40.804335-76.739778 0-139.212622-61.859883-139.212622-137.845485 0-76.020394 62.47182-137.844461 139.212622-137.844461 39.172161 0 74.605162 16.1007 99.924827 41.963741l273.606495-170.744779c-5.325285-14.59644-8.234545-30.322609-8.234545-46.710858 0-76.019371 62.467727-137.844461 139.207505-137.844461 76.780711 0 139.248438 61.819974 139.248438 137.844461 0 76.020394-62.467727 137.845485-139.248438 137.845485L764.238326 211.97813499999995zM764.238326 775.7328689999999c45.61899 0 82.697467-36.696784 82.697467-81.865519 0-45.164642-37.08257-81.904405-82.697467-81.904405-45.585221 0-82.697467 36.739762-82.697467 81.904405C681.540859 739.031992 718.653105 775.7328689999999 764.238326 775.7328689999999L764.238326 775.7328689999999zM259.728928 305.574836c-45.580105 0-82.658581 36.733623-82.658581 81.899288 0 45.128827 37.078477 81.864496 82.658581 81.864496 26.079982 0 49.371454-12.036128 64.539922-30.773887 0.576121-1.632173 1.310855-3.234671 2.218528-4.786003 1.555425-2.656503 3.491521-4.953825 5.692652-6.889921 6.526647-11.70253 10.251481-25.136493 10.251481-39.414685 0-15.032368-4.134157-29.123294-11.298324-41.243333-0.665149-0.816598-1.293459-1.679245-1.871627-2.587941-0.551562-0.86367-1.050935-1.749854-1.494027-2.644223C312.82624 319.617667 287.901571 305.574836 259.728928 305.574836L259.728928 305.574836zM764.238326-7.732869000000051c-45.585221 0-82.697467 36.70497-82.697467 81.864496 0 13.925151 3.538593 27.043936 9.752108 38.537711 0.929162 1.068332 1.803066 2.210341 2.579755 3.442402 0.916882 1.436722 1.676176 2.931772 2.298346 4.460592 14.937201 21.402449 39.873126 35.461653 68.068282 35.461653 45.614897 0 82.697467-36.734646 82.697467-81.899288 0-45.163619-37.078477-81.864496-82.697467-81.864496L764.23935-7.732869000000051zM764.238326-7.732869000000051"  horiz-adv-x="1024" />

    
    <glyph glyph-name="yduifuxuankuangxuanzhong" unicode="&#59013;" d="M831.551408 831.37719 192.441429 831.37719c-70.301136 0-127.816061-57.516971-127.816061-127.819131l0-639.102816c0-70.308299 57.514925-127.833457 127.816061-127.833457l639.109979 0c70.293973 0 127.821177 57.525158 127.821177 127.833457L959.372585 703.55806C959.372585 773.860219 901.846404 831.37719 831.551408 831.37719zM646.217353 409.560142c-108.652606-159.77903-204.521047-345.115132-204.521047-345.115132L192.444499 345.64853l63.915705 70.303182 153.384389-146.993842c0 0 76.695776 127.822201 178.950671 236.468666 102.261035 108.652606 223.688595 198.12743 223.688595 198.12743l19.170618-63.915705C831.553455 639.639285 729.29856 530.991796 646.217353 409.560142z"  horiz-adv-x="1024" />

    
    <glyph glyph-name="yduifuxuankuang" unicode="&#59014;" d="M831.550385 767.468648c38.349423 0 63.910589-25.567305 63.910589-63.910589l0-639.102816c0-38.355563-25.561166-63.916728-63.910589-63.916728L192.441429 0.538515c-38.341237 0-63.908542 25.561166-63.908542 63.916728L128.532887 703.55806c0 38.343283 25.567305 63.910589 63.908542 63.910589L831.550385 767.468648M831.550385 831.37719 192.441429 831.37719c-70.301136 0-127.816061-57.516971-127.816061-127.819131l0-639.102816c0-70.308299 57.514925-127.833457 127.816061-127.833457l639.108956 0c70.294996 0 127.822201 57.525158 127.822201 127.833457L959.372585 703.55806C959.372585 773.860219 901.846404 831.37719 831.550385 831.37719L831.550385 831.37719 831.550385 831.37719zM831.550385 831.37719"  horiz-adv-x="1024" />

    
    <glyph glyph-name="warn-outline" unicode="&#59015;" d="M511.999488 831.753767C264.717546 831.753767 64.246745 631.282966 64.246745 384.001023c0-247.287059 200.470801-447.753767 447.752744-447.753767 247.286036 0 447.752744 200.465684 447.752744 447.753767C959.752232 631.282966 759.285524 831.753767 511.999488 831.753767L511.999488 831.753767zM511.999488-11.079079999999976c-218.189348 0-395.074987 176.88564-395.074987 395.080104 0 218.190371 176.88564 395.073964 395.074987 395.073964 218.193441 0 395.07908-176.883593 395.07908-395.073964C907.078569 165.806559 730.191906-11.079079999999976 511.999488-11.079079999999976L511.999488-11.079079999999976zM511.999488 607.876883c-20.602224 0-37.319977-16.693194-37.319977-37.297464l0-242.549152c0-20.600177 16.717753-37.293371 37.319977-37.293371 20.60427 0 37.297464 16.693194 37.297464 37.293371L549.296953 570.5794189999999C549.296953 591.184713 532.603759 607.876883 511.999488 607.876883L511.999488 607.876883zM511.999488 234.76614099999995c-20.602224 0-37.319977-16.72287-37.319977-37.319977 0-20.60427 16.717753-37.323047 37.319977-37.323047 20.60427 0 37.297464 16.718777 37.297464 37.323047C549.296953 218.043271 532.603759 234.76614099999995 511.999488 234.76614099999995L511.999488 234.76614099999995zM511.999488 234.76614099999995"  horiz-adv-x="1024" />

    
    <glyph glyph-name="warn" unicode="&#59016;" d="M512.002558 831.75479c-247.292176 0-447.75786-200.464661-447.75786-447.756837 0-247.287059 200.464661-447.752744 447.75786-447.752744 247.286036 0 447.75172 200.464661 447.75172 447.752744C959.754279 631.289106 759.288594 831.75479 512.002558 831.75479zM512.010745 160.12414c-20.602224 0-37.319977 16.718777-37.319977 37.323047 0 20.597107 16.717753 37.319977 37.319977 37.319977 20.60427 0 37.297464-16.72287 37.297464-37.319977C549.308209 176.84189300000003 532.613992 160.12414 512.010745 160.12414zM549.308209 328.030267c0-20.600177-16.693194-37.293371-37.297464-37.293371-20.602224 0-37.319977 16.693194-37.319977 37.293371L474.690768 570.5794189999999c0 20.605294 16.717753 37.297464 37.319977 37.297464 20.60427 0 37.297464-16.693194 37.297464-37.297464L549.308209 328.030267z"  horiz-adv-x="1024" />

    
    <glyph glyph-name="ucenter" unicode="&#59017;" d="M511.982092 831.722044c-246.87876 0-447.729208-200.849424-447.729208-447.727161 0-51.070142 8.645914-101.220333 25.696242-149.055804 16.432251-46.096874 40.307008-89.118714 70.957075-127.863133 12.079106-15.328104 24.667819-29.460985 37.418214-42.00058 84.408435-83.055624 195.800431-128.797411 313.657676-128.797411 61.086264 0 120.342856 12.17939 176.122253 36.202527 53.81158 23.173792 102.037954 56.291051 143.338592 98.426707 12.124132 12.359492 24.079418 26.317389 36.555567 42.671868 60.021002 78.809927 91.746564 172.317601 91.746564 270.411733C959.746092 630.870574 758.880295 831.722044 511.982092 831.722044zM702.879863 488.193037c0 102.438067-84.019579 185.77817-187.293687 185.77817-50.0233 0-97.04729-19.313881-132.409682-54.384631-35.373649-35.08303-54.854329-81.746816-54.854329-131.393539 0-58.31822 27.714202-113.166409 74.523297-148.252509-45.217854-14.089903-86.987167-36.319184-124.251885-66.145489-37.308721-29.860075-68.252477-65.830311-92.052532-106.989733-43.316551 64.630996-66.175165 139.587152-66.175165 217.188554 0 215.922724 175.679162 391.58756 391.617236 391.58756 215.922724 0 391.588583-175.664835 391.588583-391.58756 0-75.342965-21.563108-148.404981-62.413492-211.6934-23.946388 39.803541-54.632271 74.564229-91.28096 103.395882-36.617989 28.805046-77.527724 50.363038-121.69669 64.145949C675.099147 374.92122700000004 702.879863 429.806255 702.879863 488.193037z"  horiz-adv-x="1024" />

    
    <glyph glyph-name="ucenter-outline" unicode="&#59018;" d="M511.982092 831.722044c-246.87876 0-447.729208-200.849424-447.729208-447.727161 0-51.070142 8.645914-101.220333 25.696242-149.055804 16.432251-46.096874 40.307008-89.118714 70.957075-127.863133 12.079106-15.328104 24.667819-29.460985 37.418214-42.00058 84.408435-83.055624 195.800431-128.797411 313.657676-128.797411 61.086264 0 120.342856 12.17939 176.122253 36.202527 53.81158 23.173792 102.037954 56.291051 143.338592 98.426707 12.124132 12.359492 24.079418 26.317389 36.555567 42.671868 60.021002 78.809927 91.746564 172.317601 91.746564 270.411733C959.746092 630.870574 758.880295 831.722044 511.982092 831.722044zM515.586177 617.824443c72.318072 0 131.154086-58.154491 131.154086-129.637546 0-71.472821-58.836013-129.62015-131.154086-129.62015-72.301699 0-131.122363 58.147328-131.122363 129.62015C384.463814 559.669952 443.284477 617.824443 515.586177 617.824443zM515.586177 301.03442700000005c122.210389 0 232.435817-67.811432 288.292985-177.171142-74.584696-83.570347-180.819229-131.439588-291.896046-131.439588-108.484783 0-212.995045 46.013987-287.166325 126.341476C278.951735 229.57490800000005 392.797619 301.03442700000005 515.586177 301.03442700000005zM702.879863 488.193037c0 102.438067-84.019579 185.77817-187.293687 185.77817-50.0233 0-97.04729-19.313881-132.409682-54.384631-35.373649-35.08303-54.854329-81.746816-54.854329-131.393539 0-58.31822 27.714202-113.166409 74.523297-148.252509-45.217854-14.089903-86.987167-36.319184-124.251885-66.145489-37.308721-29.860075-68.252477-65.830311-92.052532-106.989733-43.316551 64.630996-66.175165 139.587152-66.175165 217.188554 0 215.922724 175.679162 391.58756 391.617236 391.58756 215.922724 0 391.588583-175.664835 391.588583-391.58756 0-75.342965-21.563108-148.404981-62.413492-211.6934-23.946388 39.803541-54.632271 74.564229-91.28096 103.395882-36.617989 28.805046-77.527724 50.363038-121.69669 64.145949C675.099147 374.92122700000004 702.879863 429.806255 702.879863 488.193037z"  horiz-adv-x="1024" />

    
    <glyph glyph-name="checkoff" unicode="&#59020;" d="M959.43603 652.499174L377.413234 25.732312999999976 64.019571 428.656059l114.726951 97.92938 198.666712-207.058846 492.481458 422.51085L959.43603 652.499174 959.43603 652.499174zM959.43603 652.499174"  horiz-adv-x="1024" />

    
    <glyph glyph-name="more" unicode="&#59021;" d="M64.283584 384.001023c0-27.689642 11.401678-55.212486 30.980595-74.791403 19.578917-19.580964 47.097668-30.982642 74.79345-30.982642 27.688619 0 55.211463 11.402701 74.791403 30.982642 19.577894 19.578917 30.979572 47.101761 30.979572 74.791403 0 27.693736-11.402701 55.211463-30.979572 74.791403-19.579941 19.579941-47.103808 30.980595-74.791403 30.980595-27.695782 0-55.214533-11.400654-74.79345-30.980595C75.685261 439.212486 64.283584 411.693736 64.283584 384.001023L64.283584 384.001023zM64.283584 384.001023M404.752906 384.001023c0-27.689642 11.395538-55.212486 30.979572-74.791403 19.579941-19.580964 47.097668-30.982642 74.791403-30.982642 27.689642 0 55.208393 11.402701 74.792427 30.982642 19.577894 19.578917 30.976502 47.101761 30.976502 74.791403 0 27.693736-11.398608 55.211463-30.976502 74.791403-19.584034 19.579941-47.102784 30.980595-74.792427 30.980595-27.693736 0-55.211463-11.400654-74.791403-30.980595C416.148443 439.212486 404.752906 411.693736 404.752906 384.001023L404.752906 384.001023zM404.752906 384.001023M748.169349 384.001023c0-27.689642 11.401678-55.212486 30.980595-74.791403 19.580964-19.580964 47.097668-30.982642 74.792427-30.982642 27.688619 0 55.210439 11.402701 74.791403 30.982642 19.580964 19.578917 30.980595 47.101761 30.980595 74.791403 0 27.693736-11.400654 55.211463-30.980595 74.791403-19.580964 19.579941-47.102784 30.980595-74.791403 30.980595-27.693736 0-55.211463-11.400654-74.792427-30.980595C759.570004 439.212486 748.169349 411.693736 748.169349 384.001023L748.169349 384.001023zM748.169349 384.001023"  horiz-adv-x="1024" />

    
    <glyph glyph-name="shopcart" unicode="&#59022;" d="M351.690386 64.20760299999995c-35.414581 0-63.956637-28.541033-63.956637-63.958684 0-35.415604 28.542056-63.958684 63.956637-63.958684 35.423791 0 63.959707 28.54308 63.959707 63.958684C415.650093 35.66656999999998 387.114177 64.20760299999995 351.690386 64.20760299999995L351.690386 64.20760299999995 351.690386 64.20760299999995zM351.690386 64.20760299999995M799.576159 64.20760299999995c-35.416628 0-63.958684-28.541033-63.958684-63.958684 0-35.415604 28.542056-63.958684 63.958684-63.958684 35.418674 0 63.958684 28.54308 63.958684 63.958684C863.534843 35.66656999999998 834.823941 64.20760299999995 799.576159 64.20760299999995L799.576159 64.20760299999995 799.576159 64.20760299999995zM799.576159 64.20760299999995M935.747515 707.232752c-16.33606 18.564821-38.85903 28.54001-63.272046 28.54001L231.687268 735.7727620000001l-2.234901 13.065574c-5.675256 46.593178-46.594201 82.871429-93.187379 82.871429l-40.406269 0c-17.706267 0-31.977295-14.271028-31.977295-31.977295 0-17.711384 14.271028-31.982412 31.977295-31.982412l40.234353 0c13.922081 0 28.193109-12.722766 29.916357-28.194132l30.948873-178.467671 54.327326-381.855918c5.676279-46.596248 46.076408-83.041298 92.329848-83.041298l519.919367 0c17.706267 0 31.976272 14.265912 31.976272 31.976272s-14.270005 31.982412-31.976272 31.982412L343.443561 160.149722c-13.58746 0-26.994818 12.547781-28.885887 27.505447l-5.330402 37.310767 507.367493 31.28861c46.080501 0 86.653569 36.453237 91.988064 81.32112l50.717102 288.159956C962.909132 656.510534 954.488345 686.255998 935.747515 707.232752L935.747515 707.232752zM935.747515 707.232752"  horiz-adv-x="1024" />

    
    <glyph glyph-name="shopcart-outline" unicode="&#59023;" d="M351.720062 64.175881c-35.411511 0-63.947428-28.53694-63.947428-63.947428 0-35.411511 28.535917-63.948451 63.947428-63.948451s63.948451 28.53694 63.948451 63.948451C415.668513 35.638941000000045 387.131573 64.175881 351.720062 64.175881L351.720062 64.175881 351.720062 64.175881zM351.720062 64.175881M799.527041 64.175881c-35.410488 0-63.947428-28.53694-63.947428-63.947428 0-35.411511 28.53694-63.948451 63.947428-63.948451 35.412534 0 63.947428 28.53694 63.947428 63.948451C863.475492 35.638941000000045 834.76766 64.175881 799.527041 64.175881L799.527041 64.175881 799.527041 64.175881zM799.527041 64.175881M862.963839 96.14601300000004L343.468121 96.14601300000004c-46.069245 0-86.639243 36.447097-92.137467 83.033112l-54.320163 381.795543L166.239674 739.4085689999999c-1.89414 15.643282-16.162098 28.365025-29.91124 28.365025l-40.915875 0c-17.704221 0-31.972179 14.267958-31.972179 31.976272 0 17.703197 14.267958 31.971156 31.972179 31.971156l40.74396 0c46.586015 0 87.668689-36.440957 93.343945-83.027995l30.769794-177.751357 54.492078-383.511627c1.717108-14.784728 15.297404-27.335578 28.706809-27.335578l519.494695 0c17.702174 0 31.970132-14.267958 31.970132-31.970132C894.933971 110.41397099999995 880.664989 96.14601300000004 862.963839 96.14601300000004L862.963839 96.14601300000004zM862.963839 96.14601300000004M383.520325 224.04189199999996c-16.673751 0-30.594809 12.721743-31.800263 29.571503-1.376347 17.532305 11.863189 33.000602 29.565363 34.20708l433.885921 31.975249c15.985066 0.171915 29.396517 12.546757 31.117718 26.814716l50.364061 288.109814c1.204431 10.655687-1.719154 22.517853-8.075933 29.740348-4.128017 4.640694-9.287527 7.045463-15.302521 7.045463L319.232137 671.506063c-17.709337 0-31.977295 14.267958-31.977295 31.977295 0 17.703197 14.442944 32.318056 31.977295 32.318056l553.700751 0c24.407899 0 46.926776-10.145058 63.258743-28.537963 18.73776-21.146623 27.15957-50.713009 23.549346-81.655741l-50.368154-288.279682c-5.498224-44.867884-45.898353-81.309864-91.966575-81.309864l-431.473989-31.800263C385.073704 224.21892400000002 384.20901 224.04189199999996 383.520325 224.04189199999996L383.520325 224.04189199999996zM383.520325 224.04189199999996"  horiz-adv-x="1024" />

    
    <glyph glyph-name="good" unicode="&#59024;" d="M950.070732 448.662719c-28.509311 48.539506-81.232093 77.517491-141.031037 77.517491-39.84652 0-82.882686-0.737804-115.688859-1.466398 8.792247 52.359508 21.093411 134.000923 21.093411 180.840718 0 41.685401-14.298658 75.546603-41.34771 97.921193-22.016433 18.212804-51.794643 28.243251-83.851757 28.243251-64.61053 0-115.222231-58.669214-115.222231-133.566018 0-51.828412 0-56.06183-18.834974-82.061994-62.547545-86.449931-112.591311-125.33659-128.148635-125.33659L147.206178 490.754373c-51.163263 0-92.787266-41.12463-92.787266-91.674932l0-371.07027c0-50.564629 41.625026-91.701538 92.787266-91.701538l122.401748 0c18.0941 0 32.81436 14.601556 32.81436 32.55137L302.422286 425.7161l24.581861 0c58.725496 0 131.120316 82.924641 181.50996 152.49002 31.133068 42.992163 31.133068 63.954591 31.133068 119.975489 0 18.829857 5.523807 36.430724 15.553231 49.560766 9.329483 12.213159 21.430078 18.938328 34.073026 18.938328 27.164686 0 59.544141-10.598382 59.544141-61.09752 0-62.898539-26.638707-206.962655-26.89965-208.325699l-0.030699-0.168846c-1.790786-9.803273 0.935302-19.698644 7.43125-27.089985 6.391571-7.373944 14.894222-11.271718 24.588001-11.271718 0.446162 0 0.89744 0.008186 1.351787 0.024559l0 0c0.433882 0.010233 1.190105 0.028653 2.24718 0.057305 32.570813 0.881067 95.565543 2.358721 151.532205 2.358721 36.133965 0 67.655889-16.911158 84.323501-45.24139 13.210883-22.441105 13.984503-48.107671 2.070148-68.656683-2.687202-4.630461-5.480828-9.287527-8.833179-14.715143-15.71389-25.828248-28.125571-46.230927-25.458835-91.712795 0.572028-10.129708 1.942235-20.315698 3.27151-30.167067l0.061398-0.460488c4.090155-29.901007 7.321756-53.519937-10.81737-75.268264-31.497365-37.722136-36.305881-61.889559-39.194674-76.406181l-0.144286-0.760317c-0.149403-0.800225-0.273223-1.461281-0.398066-1.871627-12.701277-25.016767-39.435151-54.555523-94.812389-54.555523l-289.534256 0c-18.095124 0-32.815383-14.5903-32.815383-32.523741 0-17.947767 14.721283-32.547277 32.815383-32.547277l289.534256 0c69.638033 0 124.410498 32.655747 154.240897 91.970668 3.231601 6.457062 4.486174 12.706393 5.497201 17.747199 1.925862 9.506515 4.562922 22.529109 25.38618 47.504944 36.430724 43.657312 30.003338 90.911546 25.316595 125.365242l-0.393973 2.982938c-1.047866 7.91118-2.041496 15.382339-2.482541 22.729677-1.486864 25.352411 2.248204 31.484062 16.173354 54.334489 2.836605 4.669346 6.053879 9.961886 9.513678 15.914458C976.104665 355.812007 975.248158 405.845541 950.070732 448.662719zM120.074238 399.07944c0 14.670118 12.171204 26.605961 27.131941 26.605961l89.587388 0 0-424.366104L147.206178 1.3192980000000034c-14.960737 0-27.131941 11.946077-27.131941 26.631544L120.074238 399.07944z"  horiz-adv-x="1024" />

    
    <glyph glyph-name="bad" unicode="&#59025;" d="M952.383404 453.191872c-2.605338 4.490268-5.02955 8.499581-7.377014 12.375865l-2.173502 3.597945c-13.886265 22.799262-17.620309 28.927843-16.136515 54.254671 0.471744 7.817036 1.535983 15.742543 2.664689 24.131607l0.209778 1.563612c4.693906 34.500768 11.118222 81.751932-25.308409 125.404128-20.808932 24.935925-23.454178 37.971823-25.391297 47.502897-1.052982 5.314029-2.25025 11.337209-5.506411 17.781992-28.197202 55.971779-78.642105 88.190575-142.833079 91.585905l0 0.329505L429.587524 831.719998c-18.09103 0-32.81129-14.603603-32.81129-32.55137 0-17.932418 14.72026-32.520671 32.81129-32.520671l289.543466 0c55.255465 0 82.019015-29.471219 94.773504-54.470589 0.121773-0.420579 0.240477-1.031493 0.38681-1.763157 0.072655-0.372483 0.149403-0.753153 0.211824-1.042749 2.874467-14.427594 7.688099-38.572504 39.179324-76.324316 18.099217-21.698185 14.887059-45.343721 10.82044-75.287707l-0.020466-0.149403c-1.344624-9.946536-2.735297-20.231787-3.312442-30.433126-2.665713-45.512566 9.745968-65.913199 25.460882-91.742471l0.064468-0.106424c3.221368-5.16872 6.000668-9.797134 8.763594-14.610766 11.916401-20.549012 11.141758-46.215578-2.071172-68.660776-16.663518-28.331255-48.187489-45.243437-84.324524-45.243437-55.964616 0-118.964462 1.479701-151.535275 2.362814-1.058099 0.027629-1.813299 0.047072-2.24718 0.057305l0 0.001023c-0.455371 0.016373-0.904603 0.023536-1.353834 0.023536-9.650801 0-18.142196-3.88754-24.529673-11.206226-6.585999-7.488555-9.314133-17.404392-7.463995-27.299763 0.26913-1.39579 26.909883-145.891741 26.909883-208.359468 0-50.496068-32.380478-61.095473-59.544141-61.095473-12.649088 0-24.7548 6.729262-34.086329 18.949584-10.025331 13.129019-15.546068 30.724769-15.546068 49.548486 0 56.024991 0 76.987419-31.136138 119.984698-50.385551 69.565379-122.778324 152.49309-181.508937 152.49309l-24.614607 0L302.406936 799.139975c0 17.946744-14.721283 32.5483-32.815383 32.5483L147.184689 831.688275c-51.164287 0-92.789313-41.137932-92.789313-91.704608l0-371.049804c0-50.548256 41.625026-91.674932 92.789313-91.674932l179.862437 0c15.562441 0 65.611324-38.888705 128.155798-125.3458 18.835997-26.022677 18.835997-30.254048 18.835997-82.057901 0-74.90192 50.612725-133.574205 115.228371-133.574205 32.060183 0 61.839417 10.026354 83.850733 28.234041 27.053146 22.372543 41.35078 56.239885 41.35078 97.93859 0 46.844911-12.300141 128.480186-21.090341 180.834578 26.592658-0.598634 72.223928-1.458211 115.684766-1.458211 59.772338 0 112.49512 28.974915 141.036153 77.513398C975.271694 362.15343600000006 976.127178 412.186969 952.383404 453.191872zM120.052748 739.9570610000001c0 14.685467 12.171204 26.630521 27.131941 26.630521l89.590458 0 0-424.318008-89.590458 0c-7.352455 0-14.243399 2.846838-19.404955 8.015557-4.992711 4.999874-7.737218 11.585873-7.726985 18.558681L120.052748 739.9570610000001z"  horiz-adv-x="1024" />

    
    <glyph glyph-name="video" unicode="&#59026;" d="M942.313048 481.206926c-10.740622 6.132674-23.934109 5.990434-34.604122-0.341784l-85.710081-50.965765 0 22.588461c0 56.9562-46.346561 103.303784-103.303784 103.303784l-60.708664 0c17.73185 24.865317 28.409027 55.06206 28.409027 87.87949 0 83.847663-68.215638 152.065348-152.065348 152.065348-51.650357 0-97.277534-26.033933-124.752282-65.530482-27.480888 39.631626-73.178673 65.736167-124.932384 65.736167-83.848687 0-152.066371-68.216661-152.066371-152.066371 0-33.160237 10.9504-63.666018 29.065989-88.665389-54.166667-3.137457-97.382934-47.761794-97.382934-102.68673l0-377.166105c0-56.951083 46.347584-103.299691 103.305831-103.299691l551.126112 0c56.957223 0 103.303784 46.348608 103.303784 103.299691l0 55.8234 85.710081-50.968835c5.40408-3.236718 11.501962-4.854565 17.597797-4.854565 5.884011 0 11.742439 1.518586 17.006326 4.513804 10.782577 6.125511 17.423835 17.558911 17.423835 29.922497L959.735859 451.284429C959.736882 463.649038 953.095625 475.081415 942.313048 481.206926L942.313048 481.206926zM534.329053 726.862835c45.870724 0 83.197864-37.32714 83.197864-83.190701 0-45.864584-37.32714-83.196841-83.197864-83.196841-45.863561 0-83.190701 37.331233-83.190701 83.196841C451.138352 689.535695 488.465492 726.862835 534.329053 726.862835L534.329053 726.862835zM284.681226 727.073636c45.865607 0 83.192747-37.32714 83.192747-83.196841 0-45.864584-37.32714-83.191724-83.192747-83.191724-45.8697 0-83.228563 37.32714-83.228563 83.191724C201.452663 689.746496 238.77878 727.073636 284.681226 727.073636L284.681226 727.073636zM753.131361 75.35857099999998c0-19.004843-15.427364-34.431184-34.4363-34.431184L167.598624 40.92738699999995c-18.972097 0-34.431184 15.426341-34.431184 34.431184L133.16744 452.488861c0 18.972097 15.459087 34.4363 34.431184 34.4363l551.095413 0c19.008936 0 34.4363-15.464203 34.4363-34.4363L753.130338 75.35857099999998 753.131361 75.35857099999998zM890.867352 170.330596l-54.128805 32.197306c-4.650927 2.790556-9.679453 3.994987-14.739702 4.441149L821.998845 354.179834c5.028527 0.412392 10.088776 1.648546 14.739702 4.406356l54.128805 32.163537L890.867352 170.330596 890.867352 170.330596zM890.867352 170.330596"  horiz-adv-x="1024" />

    
    <glyph glyph-name="clock" unicode="&#59027;" d="M511.997442 771.490242c-224.864374 0-401.543306-176.678932-401.543306-401.539212 0-224.87256 176.678932-401.543306 401.543306-401.543306 224.867444 0 401.541259 176.670745 401.541259 401.543306C913.537677 594.81131 736.864886 771.490242 511.997442 771.490242L511.997442 771.490242zM511.997442 48.71167700000001c-176.673815 0-321.230142 144.55735-321.230142 321.240375 0 176.669722 144.556327 321.226049 321.230142 321.226049 176.677908 0 321.233212-144.556327 321.233212-321.226049C833.230654 193.26800400000002 688.67535 48.71167700000001 511.997442 48.71167700000001L511.997442 48.71167700000001zM511.997442 48.71167700000001M552.151977 386.006703L552.151977 610.870054c0 24.090675-16.058744 40.156582-40.154535 40.156582-24.091698 0-40.151465-16.064884-40.151465-40.156582l0-240.919025c0-8.037047 8.025791-24.101931 8.025791-32.127721l128.496559-128.496559c8.033977-8.032954 16.058744-8.032954 32.124651-8.032954 16.058744 0 24.090675 0 32.124651 8.032954 16.058744 16.064884 16.058744 40.156582 0 56.216349L552.151977 386.006703 552.151977 386.006703zM552.151977 386.006703M327.290673 771.490242c0 8.026814-8.032954 16.059767-8.032954 24.091698l0 0c-48.183396 40.150442-128.490419 40.150442-176.679955 0l-56.216349-56.216349c-40.149419-48.189535-40.149419-128.496559 0-176.679955 8.030907 0 16.063861-8.032954 24.091698-8.032954C150.610718 651.026636 230.916718 731.33366 327.290673 771.490242L327.290673 771.490242zM327.290673 771.490242M937.636538 739.366613l-56.221466 56.216349c-48.184419 48.182372-120.458489 48.182372-168.648025 0-8.026814-8.032954-8.026814-16.064884-16.058744-24.091698 96.372931-48.188512 176.678932-120.464629 216.830397-216.836537 8.032954 8.032954 16.065907 8.032954 24.098861 16.064884C977.78698 610.870054 977.78698 691.178101 937.636538 739.366613L937.636538 739.366613zM937.636538 739.366613M198.794114 32.65088700000001l-32.125675-32.127721c-16.056698-16.058744-16.056698-40.150442 0-56.216349 8.033977-8.026814 16.066931-8.026814 32.125675-8.026814 16.064884 0 24.090675 0 32.123628 8.026814l32.124651 32.124651c16.058744 16.064884 16.058744 40.157605 0 56.219419C246.983649 48.71167700000001 214.858998 48.71167700000001 198.794114 32.65088700000001L198.794114 32.65088700000001zM198.794114 32.65088700000001M825.1977 32.65088700000001c-16.057721 16.059767-40.149419 16.059767-56.215326 0-16.058744-16.061814-16.058744-40.154535 0-56.219419l32.124651-32.124651c8.032954-8.026814 16.064884-8.026814 32.123628-8.026814 16.064884 0 24.091698 0 32.124651 8.026814 16.059767 16.064884 16.059767 40.156582 0 56.216349L825.1977 32.65088700000001 825.1977 32.65088700000001zM825.1977 32.65088700000001"  horiz-adv-x="1024" />

    
    <glyph glyph-name="yduipaibanleixingdatu" unicode="&#59028;" d="M895.461997 831.711811 128.54005 831.711811c-35.296901 0-63.908542-28.612665-63.908542-63.908542l0-638.941134c0-35.294854 28.611641-63.910589 63.908542-63.910589l766.91683 0c35.293831 0 63.910589 28.615735 63.910589 63.910589L959.367469 767.802246C959.367469 803.099147 930.750711 831.711811 895.461997 831.711811L895.461997 831.711811zM895.461997 128.862135l-248.417813 262.040065L524.378423 284.367839 340.300988 454.805626 156.237879 284.367839l-27.697829-31.635511 0 515.070942 766.91683 0L895.461997 128.862135 895.461997 128.862135 895.461997 128.862135zM732.900597 507.257232c54.035684 0 97.879238 43.922349 97.879238 98.031711 0 54.151317-43.844577 98.048083-97.879238 98.048083-54.05922 0-97.883331-43.896766-97.883331-98.048083C635.017266 551.174464 678.841378 507.257232 732.900597 507.257232L732.900597 507.257232zM732.900597 507.257232M927.628604-63.710788 96.36935-63.710788c-17.454534 0-31.737842 14.280238-31.737842 31.739888l0 0c0 17.455557 14.283308 31.732725 31.737842 31.732725l831.259254 0c17.454534 0 31.738865-14.277168 31.738865-31.732725l0 0C959.367469-49.43055 945.083138-63.710788 927.628604-63.710788L927.628604-63.710788zM927.628604-63.710788"  horiz-adv-x="1024" />

    
    <glyph glyph-name="yduipaibanleixingduicheng" unicode="&#59029;" d="M491.106646 499.907846c0-52.730968-42.783409-95.513354-95.513354-95.513354L159.802054 404.394493c-52.729945 0.49835-95.513354 43.280736-95.513354 95.513354L64.2887 736.197434c0 52.729945 42.783409 95.514377 95.513354 95.514377L395.593292 831.711811c52.729945 0 95.513354-42.784432 95.513354-95.514377L491.106646 499.907846 491.106646 499.907846 491.106646 499.907846zM436.3833 736.197434c0 22.387893-17.904789 40.296775-40.291658 40.296775L159.802054 776.494209c-22.38687 0-40.295751-17.908882-40.295751-40.296775l0-236.288564c0-22.387893 17.908882-40.291658 40.295751-40.291658L395.593292 459.617212c22.38687 0 40.295751 17.903765 40.295751 40.291658L435.889043 736.197434 436.3833 736.197434 436.3833 736.197434zM436.3833 736.197434M174.228625 611.337705c-7.461949 0-13.928221 5.967922-13.928221 13.929244l0 24.87248c0 38.304398 25.365714 71.632457 60.685127 71.632457l86.064145 0c7.456832 0 13.927197-5.968945 13.927197-13.929244 0-7.458879-5.969968-13.929244-13.927197-13.929244L220.986555 693.913399c-21.390169 0-32.828686-23.87578-32.828686-44.271296l0-24.874527C188.157869 617.305627 182.184831 611.337705 174.228625 611.337705L174.228625 611.337705 174.228625 611.337705zM174.228625 611.337705M169.252287 564.080401c-3.481288 0-6.963599 1.489934-9.94756 3.975545-2.485611 2.491751-3.980661 6.470365-3.980661 9.954723 0 3.482311 1.49505 6.964622 3.980661 9.948583 4.971222 4.970198 14.426571 4.970198 19.397792 0 2.491751-2.491751 3.981684-5.972015 3.981684-9.948583 0-3.483334-1.489934-6.965645-3.981684-9.455349C176.215886 565.570335 172.734598 564.080401 169.252287 564.080401L169.252287 564.080401 169.252287 564.080401zM169.252287 564.080401M959.710276 499.907846c0-52.730968-42.783409-95.513354-95.512331-95.513354L627.906312 404.394493c-52.730968 0-95.512331 42.782386-95.512331 95.513354L532.393981 736.197434c0 52.729945 42.781362 95.514377 95.512331 95.514377l236.290611 0c52.728922 0 95.512331-42.784432 95.512331-95.514377L959.709253 499.907846 959.710276 499.907846 959.710276 499.907846zM904.489604 736.197434c0 22.387893-17.904789 40.296775-40.291658 40.296775L627.906312 776.494209c-22.384823 0-40.296775-17.908882-40.296775-40.296775l0-236.288564c0-22.387893 17.911952-40.291658 40.296775-40.291658l236.290611 0c22.38687 0 40.291658 17.903765 40.291658 40.291658L904.488581 736.197434 904.489604 736.197434 904.489604 736.197434zM904.489604 736.197434M491.106646 31.800519c0-52.727898-42.783409-95.511307-95.513354-95.511307L159.802054-63.710788c-52.729945 0-95.513354 42.783409-95.513354 95.511307l0 236.291634c0 52.730968 42.783409 95.513354 95.513354 95.513354L395.593292 363.605507c52.729945 0 95.513354-42.782386 95.513354-95.513354L491.106646 31.800519 491.106646 31.800519 491.106646 31.800519zM436.3833 268.092154c0 22.387893-17.904789 40.296775-40.291658 40.296775L159.802054 308.388928c-22.38687 0-40.295751-17.908882-40.295751-40.296775l0-236.291634c0-22.385846 17.908882-40.290635 40.295751-40.290635L395.593292-8.490116c22.38687 0 40.295751 17.904789 40.295751 40.290635l0 236.291634L436.3833 268.092154 436.3833 268.092154zM436.3833 268.092154M959.710276 31.800519c0-52.727898-42.783409-95.511307-95.512331-95.511307L627.906312-63.710788c-52.730968 0-95.512331 42.783409-95.512331 95.511307l0 236.291634c0 52.730968 42.781362 95.513354 95.512331 95.513354l236.290611 0c52.728922 0 95.512331-42.782386 95.512331-95.513354L959.709253 31.800519 959.710276 31.800519 959.710276 31.800519zM904.489604 268.092154c0 22.387893-17.904789 40.296775-40.291658 40.296775L627.906312 308.388928c-22.384823 0-40.296775-17.908882-40.296775-40.296775l0-236.291634c0-22.385846 17.911952-40.290635 40.296775-40.290635l236.290611 0c22.38687 0 40.291658 17.904789 40.291658 40.290635L904.488581 268.092154 904.489604 268.092154 904.489604 268.092154zM904.489604 268.092154"  horiz-adv-x="1024" />

    
    <glyph glyph-name="yduipaibanleixingliebiao" unicode="&#59031;" d="M271.026228 815.010431 105.626177 815.010431c-22.798239 0-41.343617-18.517749-41.343617-41.327244l0-165.444053c0-22.769586 18.546402-41.327244 41.343617-41.327244L271.026228 566.91189c22.808472 0 41.343617 18.557658 41.343617 41.327244L312.369845 773.683187C312.368822 796.493705 293.8347 815.010431 271.026228 815.010431zM264.65717 620.511645c0-3.212158-2.647293-5.874801-5.903453-5.874801L117.897665 614.636844c-3.25616 0-5.90857 2.663666-5.90857 5.874801L111.989095 761.412722c0 3.252067 2.65241 5.873778 5.90857 5.873778l140.856052 0c3.25616 0 5.903453-2.622734 5.903453-5.873778L264.65717 620.511645zM271.026228 508.049271 105.626177 508.049271c-22.798239 0-41.343617-18.516726-41.343617-41.326221l0-165.44303c0-22.769586 18.546402-41.329291 41.343617-41.329291L271.026228 259.950729c22.808472 0 41.343617 18.559705 41.343617 41.329291L312.369845 466.72305C312.368822 489.532545 293.8347 508.049271 271.026228 508.049271zM264.65717 313.551508c0-3.213181-2.647293-5.876847-5.903453-5.876847L117.897665 307.674661c-3.25616 0-5.90857 2.664689-5.90857 5.876847l0 140.89903c0 3.25309 2.65241 5.874801 5.90857 5.874801l140.856052 0c3.25616 0 5.903453-2.622734 5.903453-5.874801L264.65717 313.551508zM271.026228 201.08811 105.626177 201.08811c-22.798239 0-41.343617-18.516726-41.343617-41.327244l0-165.44303c0-22.769586 18.546402-41.328267 41.343617-41.328267L271.026228-47.010431c22.808472 0 41.343617 18.558681 41.343617 41.328267L312.369845 159.760866C312.368822 182.571385 293.8347 201.08811 271.026228 201.08811zM264.65717 6.589324c0-3.212158-2.647293-5.875824-5.903453-5.875824L117.897665 0.7135c-3.25616 0-5.90857 2.664689-5.90857 5.875824L111.989095 147.490402c0 3.252067 2.65241 5.874801 5.90857 5.874801l140.856052 0c3.25616 0 5.903453-2.622734 5.903453-5.874801L264.65717 6.589324zM918.372799 815.010431 412.445098 815.010431c-22.798239 0-41.343617-18.517749-41.343617-41.327244l0-165.444053c0-22.769586 18.546402-41.327244 41.343617-41.327244l505.927701 0c22.808472 0 41.343617 18.557658 41.343617 41.327244L959.716416 773.683187C959.716416 796.493705 941.181271 815.010431 918.372799 815.010431zM912.004765 620.511645c0-3.212158-2.648316-5.874801-5.904477-5.874801L424.716586 614.636844c-3.25616 0-5.909593 2.663666-5.909593 5.874801L418.806993 761.412722c0 3.252067 2.653433 5.873778 5.909593 5.873778l481.384725 0c3.25616 0 5.904477-2.622734 5.904477-5.873778L912.005788 620.511645zM918.372799 508.049271 412.445098 508.049271c-22.798239 0-41.343617-18.516726-41.343617-41.326221l0-165.44303c0-22.769586 18.546402-41.329291 41.343617-41.329291l505.927701 0c22.808472 0 41.343617 18.559705 41.343617 41.329291L959.716416 466.72305C959.716416 489.532545 941.181271 508.049271 918.372799 508.049271zM912.004765 313.551508c0-3.213181-2.648316-5.876847-5.904477-5.876847L424.716586 307.674661c-3.25616 0-5.909593 2.664689-5.909593 5.876847l0 140.89903c0 3.25309 2.653433 5.874801 5.909593 5.874801l481.384725 0c3.25616 0 5.904477-2.622734 5.904477-5.874801L912.005788 313.551508zM918.372799 201.08811 412.445098 201.08811c-22.798239 0-41.343617-18.516726-41.343617-41.327244l0-165.44303c0-22.769586 18.546402-41.328267 41.343617-41.328267l505.927701 0c22.808472 0 41.343617 18.558681 41.343617 41.328267L959.716416 159.760866C959.716416 182.571385 941.181271 201.08811 918.372799 201.08811zM912.004765 6.589324c0-3.212158-2.648316-5.875824-5.904477-5.875824L424.716586 0.7135c-3.25616 0-5.909593 2.664689-5.909593 5.875824L418.806993 147.490402c0 3.252067 2.653433 5.874801 5.909593 5.874801l481.384725 0c3.25616 0 5.904477-2.622734 5.904477-5.874801L912.005788 6.589324z"  horiz-adv-x="1024" />

    
    <glyph glyph-name="delete" unicode="&#59032;" d="M607.938538 128.16014700000005c-17.683754 0-31.977295 14.292518-31.977295 31.977295L575.961242 511.920438c0 17.684778 14.293541 31.983435 31.977295 31.983435s31.982412-14.298658 31.982412-31.983435L639.92095 160.13744299999996C639.92095 142.45266500000002 625.622292 128.16014700000005 607.938538 128.16014700000005L607.938538 128.16014700000005zM607.938538 128.16014700000005M416.061462 128.16014700000005c-17.691941 0-31.982412 14.292518-31.982412 31.977295L384.07905 511.920438c0 17.684778 14.291494 31.983435 31.982412 31.983435 17.682731 0 31.976272-14.298658 31.976272-31.983435L448.037734 160.13744299999996C448.036711 142.45266500000002 433.744193 128.16014700000005 416.061462 128.16014700000005L416.061462 128.16014700000005zM416.061462 128.16014700000005M927.739121 671.821241L767.839341 671.821241l0 63.959707c0 52.896744-42.693358 95.941096-95.204315 95.941096L352.095615 831.722044c-52.890604 0-95.934956-43.044352-95.934956-95.941096l0-63.959707-159.901827 0c-17.689894 0-31.982412-14.292518-31.982412-31.982412 0-17.684778 14.292518-31.976272 31.982412-31.976272l831.480288 0c17.683754 0 31.982412 14.291494 31.982412 31.976272C959.721533 657.529747 945.423899 671.821241 927.739121 671.821241L927.739121 671.821241zM320.119343 735.780949c0 17.621333 14.355963 31.982412 31.976272 31.982412l320.53941 0c17.528212 0 31.245631-14.039761 31.245631-31.982412l0-63.959707L320.119343 671.821241 320.119343 735.780949 320.119343 735.780949zM320.119343 735.780949M735.988936-63.72204399999998l-447.788559 0c-52.891627 0-95.935979 43.043329-95.935979 95.941096L192.264397 512.400369c0 17.655102 14.32731 31.981389 31.977295 31.981389 17.656125 0 31.980365-14.326287 31.980365-31.981389l0-480.18234c0-17.655102 14.359033-31.982412 31.978319-31.982412l447.788559 0c17.651009 0 31.978319 14.32731 31.978319 31.982412L767.967254 511.09156c0 17.651009 14.297634 31.978319 31.980365 31.978319 17.684778 0 31.983435-14.32731 31.983435-31.978319l0-478.873532C831.930031-20.67871600000001 788.880563-63.72204399999998 735.988936-63.72204399999998L735.988936-63.72204399999998zM735.988936-63.72204399999998"  horiz-adv-x="1024" />

    
    </font>
</defs>
</svg>
